<svg xmlns="http://www.w3.org/2000/svg" viewBox="0 0 1056 1632" preserveAspectRatio="xMidYMid slice">
  <defs>
    
  </defs>
  
  <path class="tc" d="M-20,400 Q80,360 200,390 Q320,420 440,370 Q560,320 680,355 Q800,390 920,340 Q1000,310 1076,330"></path>
  <path class="tc" d="M-20,450 Q100,410 230,440 Q370,470 490,418 Q610,366 740,400 Q860,434 980,385 Q1030,362 1076,378"></path>
  <path class="tc" d="M-20,500 Q120,458 260,490 Q410,522 530,465 Q655,408 785,445 Q900,478 1010,430 Q1050,412 1076,425"></path>
  <path class="tc" d="M-20,550 Q90,515 220,542 Q360,570 500,512 Q640,454 770,490 Q890,522 1000,474 Q1040,456 1076,470"></path>
  <path class="tc" d="M-20,600 Q110,562 250,592 Q395,622 535,558 Q675,494 800,533 Q915,568 1015,518 Q1050,500 1076,515"></path>
  <path class="tc" d="M-20,650 Q130,610 270,643 Q415,678 560,610 Q700,542 825,580 Q935,614 1025,562 Q1058,543 1076,558"></path>
  <path class="tc" d="M-20,700 Q150,660 295,695 Q445,732 590,660 Q725,588 848,628 Q952,660 1035,608 Q1062,587 1076,602"></path>
  <path class="tc" d="M-20,750 Q170,710 320,747 Q475,786 620,710 Q750,634 870,676 Q968,706 1040,654 Q1065,632 1076,648"></path>
  <path class="tc" d="M-20,800 Q145,760 300,798 Q460,840 615,760 Q745,680 865,724 Q960,752 1038,700 Q1065,678 1076,695"></path>
  <path class="tc" d="M-20,850 Q160,808 315,848 Q480,892 640,808 Q770,724 890,770 Q985,798 1045,744 Q1068,722 1076,740"></path>
  <path class="tc" d="M-20,900 Q175,856 335,898 Q505,944 668,856 Q800,768 918,816 Q1010,844 1052,788 Q1070,766 1076,785"></path>
  <path class="tc" d="M-20,950 Q185,905 350,948 Q524,996 690,904 Q824,812 942,862 Q1032,890 1058,832 Q1072,810 1076,830"></path>
  <path class="tc" d="M-20,1000 Q195,954 365,998 Q544,1048 714,952 Q850,856 966,908 Q1054,936 1062,876 Q1074,854 1076,875"></path>
  <path class="tc" d="M-20,1050 Q200,1000 375,1048 Q558,1100 732,1000 Q870,900 985,954 Q1070,982 1065,920"></path>
  <path class="tc" d="M-20,1100 Q210,1048 390,1098 Q578,1152 755,1048 Q895,944 1005,1000 Q1075,1028 1068,964"></path>
  <path class="tc" d="M-20,1150 Q215,1096 400,1148 Q593,1204 774,1096 Q916,988 1022,1046 Q1076,1074 1070,1008"></path>
  <path class="tc" d="M-20,1200 Q220,1144 415,1198 Q612,1256 795,1144 Q940,1032 1038,1092 Q1076,1120 1072,1052"></path>
  
  <path class="tc" d="M0,300 Q264,280 528,300 Q792,320 1056,295"></path>
  <path class="tc" d="M0,350 Q264,328 528,348 Q792,368 1056,342"></path>
  <path class="tc" d="M0,1300 Q264,1278 528,1298 Q792,1318 1056,1292"></path>
  <path class="tc" d="M0,1350 Q264,1328 528,1348 Q792,1368 1056,1342"></path>
  <path class="tc" d="M0,1400 Q264,1378 528,1398 Q792,1418 1056,1392"></path>
</svg>