<?xml version="1.0" encoding="utf-8"?>

<svg version="1.1" id="Capa_1" xmlns="http://www.w3.org/2000/svg" xmlns:xlink="http://www.w3.org/1999/xlink" x="0px" y="0px" viewBox="0 0 769.66 768" style="enable-background:new 0 0 769.66 768;" xml:space="preserve">

<g>
&#x9;<rect x="-3479.98" y="868" class="st0" width="771.63" height="767.1"></rect>
&#x9;<g>
&#x9;&#x9;<g>
&#x9;&#x9;&#x9;<g>
&#x9;&#x9;&#x9;&#x9;<g>
&#x9;&#x9;&#x9;&#x9;&#x9;<path class="st1" d="M-3092.67,1259.16c-47.61,0-86.34-38.73-86.34-86.34c0-47.61,38.73-86.34,86.34-86.34&#xA;&#x9;&#x9;&#x9;&#x9;&#x9;&#x9;s86.34,38.73,86.34,86.34C-3006.33,1220.43-3045.06,1259.16-3092.67,1259.16z M-3092.67,1095.69&#xA;&#x9;&#x9;&#x9;&#x9;&#x9;&#x9;c-42.53,0-77.13,34.6-77.13,77.13c0,42.53,34.6,77.13,77.13,77.13s77.13-34.6,77.13-77.13&#xA;&#x9;&#x9;&#x9;&#x9;&#x9;&#x9;C-3015.54,1130.29-3050.14,1095.69-3092.67,1095.69z"></path>
&#x9;&#x9;&#x9;&#x9;</g>
&#x9;&#x9;&#x9;</g>
&#x9;&#x9;&#x9;<path class="st1" d="M-3051.18,1200.3l-0.05-1.2c-1.2-17.24-19.41-30.74-41.44-30.74c-16.09,0-29.51-8.45-32.11-19.58&#xA;&#x9;&#x9;&#x9;&#x9;c4.19-2.28,6.93-2.8,6.93-2.8c7.89-1.62,16.29-0.76,23.64,2.42c12,5.19,25.76,5.19,37.76,0l2.55-1.1c1.73-0.75,2.8-2.51,2.67-4.4&#xA;&#x9;&#x9;&#x9;&#x9;c-1.2-17.24-19.41-30.74-41.44-30.74c-22.89,0-41.51,14.6-41.51,32.55c0,0.2,0.01,0.4,0.02,0.6l0.05,1.22&#xA;&#x9;&#x9;&#x9;&#x9;c1.2,17.24,19.41,30.74,41.44,30.74c16.47,0,30.15,8.86,32.28,20.37c-3.43,1.29-7.23,2-7.23,2c-7.93,1.57-16.01,0.71-23.38-2.48&#xA;&#x9;&#x9;&#x9;&#x9;c-12-5.2-25.76-5.2-37.76,0l-2.68,1.16c-1.73,0.75-2.81,2.51-2.68,4.4c1.2,17.24,19.41,30.74,41.44,30.74&#xA;&#x9;&#x9;&#x9;&#x9;c22.89,0,41.51-14.6,41.51-32.55C-3051.17,1200.71-3051.17,1200.5-3051.18,1200.3z M-3092.67,1121.08&#xA;&#x9;&#x9;&#x9;&#x9;c15.95,0,29.31,8.31,32.07,19.41c-9.6,3.96-20.52,3.87-30.07-0.26c-9.15-3.96-19.16-4.99-28.97-2.98&#xA;&#x9;&#x9;&#x9;&#x9;c-1.51,0.27-3.09,0.84-4.52,1.46C-3120.48,1128.58-3107.78,1121.08-3092.67,1121.08z M-3092.67,1224.55&#xA;&#x9;&#x9;&#x9;&#x9;c-15.95,0-29.31-8.31-32.07-19.41c9.64-4.02,20.62-3.95,30.21,0.2c9.03,3.91,18.94,4.97,28.65,3.04&#xA;&#x9;&#x9;&#x9;&#x9;c1.28-0.21,3.03-0.79,4.69-1.43C-3064.89,1217.07-3077.58,1224.55-3092.67,1224.55z"></path>
&#x9;&#x9;</g>
&#x9;&#x9;<g>
&#x9;&#x9;&#x9;<path class="st1" d="M-3275.22,1301.37c0-0.81,0.65-1.53,1.53-1.53h35.61c0.89,0,1.53,0.73,1.53,1.53v6.62&#xA;&#x9;&#x9;&#x9;&#x9;c0,0.81-0.65,1.53-1.53,1.53h-26.64v13.24h22.69c0.81,0,1.53,0.73,1.53,1.53v6.7c0,0.89-0.73,1.53-1.53,1.53h-22.69v14.13h26.64&#xA;&#x9;&#x9;&#x9;&#x9;c0.89,0,1.53,0.73,1.53,1.53v6.62c0,0.81-0.65,1.53-1.53,1.53h-35.61c-0.89,0-1.53-0.73-1.53-1.53V1301.37z"></path>
&#x9;&#x9;&#x9;<path class="st1" d="M-3186.33,1300.24c0.08-0.65,0.56-1.21,1.45-1.21h1.29c0.65,0,1.13,0.32,1.37,0.81l17.76,38.11&#xA;&#x9;&#x9;&#x9;&#x9;c0.16,0,0.16,0,0.24,0l17.76-38.11c0.24-0.48,0.65-0.81,1.37-0.81h1.29c0.89,0,1.37,0.57,1.45,1.21l9.53,54.26&#xA;&#x9;&#x9;&#x9;&#x9;c0.24,1.13-0.4,1.86-1.45,1.86h-7.35c-0.73,0-1.37-0.65-1.53-1.21l-4.76-30.6c-0.08,0-0.24,0-0.24,0l-14.13,31.73&#xA;&#x9;&#x9;&#x9;&#x9;c-0.16,0.48-0.65,0.89-1.37,0.89h-1.45c-0.73,0-1.13-0.4-1.37-0.89l-14.29-31.73c0,0-0.16,0-0.24,0l-4.68,30.6&#xA;&#x9;&#x9;&#x9;&#x9;c-0.08,0.57-0.73,1.21-1.45,1.21h-7.27c-1.05,0-1.7-0.73-1.53-1.86L-3186.33,1300.24z"></path>
&#x9;&#x9;&#x9;<path class="st1" d="M-3086.22,1301.37c0-0.81,0.73-1.53,1.53-1.53h7.51c0.81,0,1.53,0.73,1.53,1.53v53.45&#xA;&#x9;&#x9;&#x9;&#x9;c0,0.81-0.73,1.53-1.53,1.53h-7.51c-0.81,0-1.53-0.73-1.53-1.53V1301.37z"></path>
&#x9;&#x9;&#x9;<path class="st1" d="M-3025.42,1301.37c0-0.81,0.65-1.53,1.53-1.53h7.43c0.81,0,1.53,0.73,1.53,1.53v45.3h26.16&#xA;&#x9;&#x9;&#x9;&#x9;c0.89,0,1.53,0.73,1.53,1.53v6.62c0,0.81-0.65,1.53-1.53,1.53h-35.12c-0.89,0-1.53-0.73-1.53-1.53V1301.37z"></path>
&#x9;&#x9;&#x9;<path class="st1" d="M-2949.13,1301.37c0-0.81,0.64-1.53,1.53-1.53h7.43c0.81,0,1.53,0.73,1.53,1.53v45.3h26.16&#xA;&#x9;&#x9;&#x9;&#x9;c0.89,0,1.53,0.73,1.53,1.53v6.62c0,0.81-0.65,1.53-1.53,1.53h-35.12c-0.89,0-1.53-0.73-1.53-1.53V1301.37z"></path>
&#x9;&#x9;&#x9;<path class="st1" d="M-2877.6,1354.26l25.11-54.34c0.24-0.48,0.65-0.89,1.37-0.89h0.81c0.81,0,1.13,0.4,1.37,0.89l24.87,54.34&#xA;&#x9;&#x9;&#x9;&#x9;c0.48,1.05-0.16,2.1-1.37,2.1h-7.02c-1.21,0-1.78-0.48-2.34-1.61l-3.96-8.72h-24.14l-3.96,8.72c-0.32,0.81-1.05,1.61-2.34,1.61&#xA;&#x9;&#x9;&#x9;&#x9;h-7.02C-2877.43,1356.35-2878.08,1355.31-2877.6,1354.26z M-2842.72,1337.06l-8.07-17.76h-0.24l-7.91,17.76H-2842.72z"></path>
&#x9;&#x9;&#x9;<g>
&#x9;&#x9;&#x9;&#x9;<path class="st1" d="M-3363.58,1348.44l3.38-5.01c0.75-1.13,2.35-1.13,3.19-0.57c0.47,0.24,8.07,4.85,14.17,5.01&#xA;&#x9;&#x9;&#x9;&#x9;&#x9;c5.22,0.14,9.19-2.49,9.67-6.22c0.52-4.08-5.16-6.94-13.05-9.69c-8.82-3.07-17.65-7.91-17.65-17.44c0-7.19,6.19-15.5,21.12-15.5&#xA;&#x9;&#x9;&#x9;&#x9;&#x9;c9.57,0,16.89,4.2,18.77,5.41c0.94,0.48,1.22,1.86,0.56,2.66l-3.57,4.6c-0.75,0.97-2.16,1.61-3.28,0.97&#xA;&#x9;&#x9;&#x9;&#x9;&#x9;c-0.75-0.4-7.9-4.03-13.05-4.44c-5.34-0.43-8.26,3.07-8.26,5.65c0,3.79,3.47,6.38,11.08,9.04c9.1,3.15,19.62,7.83,19.62,18.25&#xA;&#x9;&#x9;&#x9;&#x9;&#x9;c0,8.32-8.35,15.99-21.59,15.99c-11.83,0-18.77-4.76-20.65-6.3C-3363.95,1350.14-3364.42,1349.73-3363.58,1348.44z"></path>
&#x9;&#x9;&#x9;</g>
&#x9;&#x9;</g>
&#x9;&#x9;<g>
&#x9;&#x9;&#x9;<path class="st1" d="M-3311.82,1409.51c0,4.22,2.68,4.81,4.33,4.81c1.01,0,2.02-0.11,3-0.76l1.31,1.51&#xA;&#x9;&#x9;&#x9;&#x9;c-1.28,1.08-2.8,1.49-4.26,1.49c-2.47,0-6.72-1.33-6.72-7.13c0-4.91,3.67-6.65,6.69-6.65c1.49,0,3,0.39,4.29,1.42l-1.33,1.61&#xA;&#x9;&#x9;&#x9;&#x9;c-0.94-0.62-1.97-0.78-2.98-0.78C-3309.53,1405.04-3311.82,1405.84-3311.82,1409.51z"></path>
&#x9;&#x9;&#x9;<path class="st1" d="M-3272.23,1416.43h-2.48l-1.15-3.07h-5.48l-1.15,3.07h-2.47l5-13.53h2.73L-3272.23,1416.43z&#xA;&#x9;&#x9;&#x9;&#x9; M-3280.53,1411.21h3.87l-1.95-5.2L-3280.53,1411.21z"></path>
&#x9;&#x9;&#x9;<path class="st1" d="M-3253.42,1402.91h9.1v2.2h-6.79v3.71h5.55v2.2h-5.55v5.41h-2.32V1402.91z"></path>
&#x9;&#x9;&#x9;<path class="st1" d="M-3222.63,1405.11v3.71h5.55v2.2h-5.55v3.21h6.79v2.2h-9.1v-13.53h9.1v2.2H-3222.63z M-3217.7,1398.23h-2.5&#xA;&#x9;&#x9;&#x9;&#x9;l-1.38,3.14h2.13L-3217.7,1398.23z"></path>
&#x9;&#x9;&#x9;<path class="st1" d="M-3169.44,1405.13c-0.92,0-2.41,0.27-2.41,1.63c0,1.74,1.54,1.79,2.41,1.79h2.34v-1.74h2.31v1.74h1.28v2.2&#xA;&#x9;&#x9;&#x9;&#x9;h-1.28v1.9c0,1.44-1.17,3.92-4.7,3.92h-0.37c-3.55,0-4.97-1.77-4.97-3.78c0-1.47,0.44-2.73,2.18-3.21&#xA;&#x9;&#x9;&#x9;&#x9;c-1.4-0.67-1.51-2.06-1.51-2.89c0-3.16,2.64-3.78,4.54-3.78h1.35l-0.34,2.22H-3169.44z M-3169.46,1414.32&#xA;&#x9;&#x9;&#x9;&#x9;c0.89,0,2.36-0.27,2.36-1.93v-1.65h-3.07c-1.19,0-2.34,0.46-2.34,1.83c0,1.67,1.81,1.74,2.64,1.74H-3169.46z"></path>
&#x9;&#x9;&#x9;<path class="st1" d="M-3120.48,1409.51c0,4.22,2.68,4.81,4.33,4.81c1.01,0,2.02-0.11,3-0.76l1.31,1.51&#xA;&#x9;&#x9;&#x9;&#x9;c-1.28,1.08-2.8,1.49-4.27,1.49c-2.48,0-6.72-1.33-6.72-7.13c0-4.91,3.67-6.65,6.69-6.65c1.49,0,3,0.39,4.29,1.42l-1.33,1.61&#xA;&#x9;&#x9;&#x9;&#x9;c-0.94-0.62-1.97-0.78-2.98-0.78C-3118.19,1405.04-3120.48,1405.84-3120.48,1409.51z"></path>
&#x9;&#x9;&#x9;<path class="st1" d="M-3093.5,1409.44c0-4.91,3.53-6.65,6.49-6.65c2.96,0,6.49,1.74,6.49,6.65c0,5.8-4.01,7.13-6.49,7.13&#xA;&#x9;&#x9;&#x9;&#x9;C-3089.49,1416.57-3093.5,1415.24-3093.5,1409.44z M-3082.86,1409.51c0-3.67-2.13-4.47-4.15-4.47c-2.02,0-4.15,0.8-4.15,4.47&#xA;&#x9;&#x9;&#x9;&#x9;c0,4.22,2.52,4.81,4.15,4.81C-3085.38,1414.32-3082.86,1413.73-3082.86,1409.51z"></path>
&#x9;&#x9;&#x9;<path class="st1" d="M-3052.3,1402.91c0.85,3.07,1.93,7.08,2.84,10.11l2.13-10.11h2.41l-2.91,13.53h-3.07l-2.7-9.35l-2.71,9.35&#xA;&#x9;&#x9;&#x9;&#x9;h-3.07l-2.91-13.53h2.41l2.13,10.11c0.92-3.03,2-7.04,2.84-10.11H-3052.3z"></path>
&#x9;&#x9;&#x9;<path class="st1" d="M-3026.68,1409.44c0-4.91,3.53-6.65,6.49-6.65s6.49,1.74,6.49,6.65c0,5.8-4.01,7.13-6.49,7.13&#xA;&#x9;&#x9;&#x9;&#x9;S-3026.68,1415.24-3026.68,1409.44z M-3016.05,1409.51c0-3.67-2.13-4.47-4.15-4.47s-4.15,0.8-4.15,4.47&#xA;&#x9;&#x9;&#x9;&#x9;c0,4.22,2.52,4.81,4.15,4.81S-3016.05,1413.73-3016.05,1409.51z"></path>
&#x9;&#x9;&#x9;<path class="st1" d="M-2986.35,1411.18c0.87,0.8,1.19,1.54,1.74,3.09l0.73,2.16h-2.5l-0.78-2.41c-0.57-1.63-1.26-2.25-2.2-2.25&#xA;&#x9;&#x9;&#x9;&#x9;h-2.66v4.65h-2.32v-13.53h5.94c1.93,0,4.31,1.1,4.31,4.31C-2984.08,1408.39-2984.4,1410.7-2986.35,1411.18z M-2988.42,1409.56&#xA;&#x9;&#x9;&#x9;&#x9;c0.92,0,2-0.07,2-2.27c0-1.83-1.01-2.18-2-2.18h-3.6v4.45H-2988.42z"></path>
&#x9;&#x9;&#x9;<path class="st1" d="M-2953.61,1416.43h-3.03l-5.85-6.44v6.44h-2.32v-13.53h2.32v6.12c1.83-2.04,4.01-4.04,5.85-6.12h3.05&#xA;&#x9;&#x9;&#x9;&#x9;l-6.17,6.65L-2953.61,1416.43z"></path>
&#x9;&#x9;&#x9;<path class="st1" d="M-2935.24,1402.91h2.34v13.53h-2.34V1402.91z"></path>
&#x9;&#x9;&#x9;<path class="st1" d="M-2910.85,1406.9v9.54h-2.34v-13.53h2.48l6.58,9.7v-9.7h2.34v13.53h-2.57L-2910.85,1406.9z"></path>
&#x9;&#x9;&#x9;<path class="st1" d="M-2871.18,1409.26v5.48c-1.08,1.33-3.3,1.83-4.75,1.83c-2.48,0-6.72-1.33-6.72-7.13&#xA;&#x9;&#x9;&#x9;&#x9;c0-4.91,3.67-6.65,6.69-6.65c1.49,0,3,0.39,4.29,1.42l-1.33,1.61c-0.94-0.62-1.97-0.78-2.98-0.78c-2.04,0-4.33,0.8-4.33,4.47&#xA;&#x9;&#x9;&#x9;&#x9;c0,4.22,2.68,4.81,4.33,4.81c0.85,0,1.56-0.09,2.45-0.62v-2.25h-1.97v-2.2H-2871.18z"></path>
&#x9;&#x9;</g>
&#x9;&#x9;<g>
&#x9;&#x9;&#x9;<g>
&#x9;&#x9;&#x9;&#x9;<path class="st1" d="M-3247.93,1245.52h1.53v13.24h-2.29v-7.65l-3.03,4.8h-1.84l-3.03-4.8v7.65h-2.29v-13.24h1.53l4.71,7.56&#xA;&#x9;&#x9;&#x9;&#x9;&#x9;L-3247.93,1245.52z"></path>
&#x9;&#x9;&#x9;&#x9;<path class="st1" d="M-3219.91,1247.67v3.63h5.43v2.15h-5.43v3.14h6.64v2.15h-8.91v-13.24h8.91v2.15H-3219.91z"></path>
&#x9;&#x9;&#x9;&#x9;<path class="st1" d="M-3184.64,1258.76h-4.62v-13.24h4.35c2.85,0,6.35,1.62,6.35,6.39&#xA;&#x9;&#x9;&#x9;&#x9;&#x9;C-3178.56,1257.43-3182.24,1258.76-3184.64,1258.76z M-3184.93,1256.6c1.61,0,4.11-0.49,4.11-4.62c0-3.52-2.02-4.31-4.04-4.31&#xA;&#x9;&#x9;&#x9;&#x9;&#x9;h-2.13v8.93H-3184.93z"></path>
&#x9;&#x9;&#x9;</g>
&#x9;&#x9;&#x9;<g>
&#x9;&#x9;&#x9;&#x9;<path class="st1" d="M-3002.82,1251.98c0,4.13,2.62,4.71,4.24,4.71c0.99,0,1.97-0.11,2.94-0.74l1.28,1.48&#xA;&#x9;&#x9;&#x9;&#x9;&#x9;c-1.26,1.05-2.74,1.46-4.17,1.46c-2.42,0-6.57-1.3-6.57-6.98c0-4.8,3.59-6.51,6.55-6.51c1.46,0,2.94,0.38,4.2,1.39l-1.3,1.57&#xA;&#x9;&#x9;&#x9;&#x9;&#x9;c-0.92-0.61-1.93-0.76-2.92-0.76C-3000.57,1247.61-3002.82,1248.39-3002.82,1251.98z"></path>
&#x9;&#x9;&#x9;&#x9;<path class="st1" d="M-2971.47,1251.91c0-4.8,3.46-6.51,6.35-6.51c2.89,0,6.35,1.71,6.35,6.51c0,5.68-3.93,6.98-6.35,6.98&#xA;&#x9;&#x9;&#x9;&#x9;&#x9;C-2967.54,1258.89-2971.47,1257.59-2971.47,1251.91z M-2961.06,1251.98c0-3.59-2.09-4.37-4.06-4.37s-4.06,0.79-4.06,4.37&#xA;&#x9;&#x9;&#x9;&#x9;&#x9;c0,4.13,2.47,4.71,4.06,4.71C-2963.53,1256.69-2961.06,1256.11-2961.06,1251.98z"></path>
&#x9;&#x9;&#x9;&#x9;<path class="st1" d="M-2932.61,1256.6h6.15v2.15h-8.41v-13.24h2.27V1256.6z"></path>
&#x9;&#x9;&#x9;</g>
&#x9;&#x9;</g>
&#x9;</g>
</g>
<g>
&#x9;<rect x="-3479.98" y="0" class="st1" width="771.63" height="767.1"></rect>
&#x9;<g>
&#x9;&#x9;<g>
&#x9;&#x9;&#x9;<g>
&#x9;&#x9;&#x9;&#x9;<g>
&#x9;&#x9;&#x9;&#x9;&#x9;<path class="st2" d="M-3092.67,391.16c-47.61,0-86.34-38.73-86.34-86.34c0-47.61,38.73-86.34,86.34-86.34&#xA;&#x9;&#x9;&#x9;&#x9;&#x9;&#x9;s86.34,38.73,86.34,86.34C-3006.33,352.43-3045.06,391.16-3092.67,391.16z M-3092.67,227.69c-42.53,0-77.13,34.6-77.13,77.13&#xA;&#x9;&#x9;&#x9;&#x9;&#x9;&#x9;c0,42.53,34.6,77.13,77.13,77.13s77.13-34.6,77.13-77.13C-3015.54,262.29-3050.14,227.69-3092.67,227.69z"></path>
&#x9;&#x9;&#x9;&#x9;</g>
&#x9;&#x9;&#x9;</g>
&#x9;&#x9;&#x9;<path class="st2" d="M-3051.18,332.3l-0.05-1.2c-1.2-17.24-19.41-30.74-41.44-30.74c-16.09,0-29.51-8.45-32.11-19.58&#xA;&#x9;&#x9;&#x9;&#x9;c4.19-2.28,6.93-2.8,6.93-2.8c7.89-1.62,16.29-0.76,23.64,2.42c12,5.19,25.76,5.19,37.76,0l2.55-1.1c1.73-0.75,2.8-2.51,2.67-4.4&#xA;&#x9;&#x9;&#x9;&#x9;c-1.2-17.24-19.41-30.74-41.44-30.74c-22.89,0-41.51,14.6-41.51,32.55c0,0.2,0.01,0.4,0.02,0.6l0.05,1.22&#xA;&#x9;&#x9;&#x9;&#x9;c1.2,17.24,19.41,30.74,41.44,30.74c16.47,0,30.15,8.86,32.28,20.37c-3.43,1.29-7.23,2-7.23,2c-7.93,1.57-16.01,0.71-23.38-2.48&#xA;&#x9;&#x9;&#x9;&#x9;c-12-5.2-25.76-5.2-37.76,0l-2.68,1.16c-1.73,0.75-2.81,2.51-2.68,4.4c1.2,17.24,19.41,30.74,41.44,30.74&#xA;&#x9;&#x9;&#x9;&#x9;c22.89,0,41.51-14.6,41.51-32.55C-3051.17,332.71-3051.17,332.5-3051.18,332.3z M-3092.67,253.08c15.95,0,29.31,8.31,32.07,19.41&#xA;&#x9;&#x9;&#x9;&#x9;c-9.6,3.96-20.52,3.87-30.07-0.26c-9.15-3.96-19.16-4.99-28.97-2.98c-1.51,0.27-3.09,0.84-4.52,1.46&#xA;&#x9;&#x9;&#x9;&#x9;C-3120.48,260.58-3107.78,253.08-3092.67,253.08z M-3092.67,356.55c-15.95,0-29.31-8.31-32.07-19.41&#xA;&#x9;&#x9;&#x9;&#x9;c9.64-4.02,20.62-3.95,30.21,0.2c9.03,3.91,18.94,4.97,28.65,3.04c1.28-0.21,3.03-0.79,4.69-1.43&#xA;&#x9;&#x9;&#x9;&#x9;C-3064.89,349.07-3077.58,356.55-3092.67,356.55z"></path>
&#x9;&#x9;</g>
&#x9;&#x9;<g>
&#x9;&#x9;&#x9;<path class="st2" d="M-3275.22,433.37c0-0.81,0.65-1.53,1.53-1.53h35.61c0.89,0,1.53,0.73,1.53,1.53v6.62&#xA;&#x9;&#x9;&#x9;&#x9;c0,0.81-0.65,1.53-1.53,1.53h-26.64v13.24h22.69c0.81,0,1.53,0.73,1.53,1.53v6.7c0,0.89-0.73,1.53-1.53,1.53h-22.69v14.13h26.64&#xA;&#x9;&#x9;&#x9;&#x9;c0.89,0,1.53,0.73,1.53,1.53v6.62c0,0.81-0.65,1.53-1.53,1.53h-35.61c-0.89,0-1.53-0.73-1.53-1.53V433.37z"></path>
&#x9;&#x9;&#x9;<path class="st2" d="M-3186.33,432.24c0.08-0.65,0.56-1.21,1.45-1.21h1.29c0.65,0,1.13,0.32,1.37,0.81l17.76,38.11&#xA;&#x9;&#x9;&#x9;&#x9;c0.16,0,0.16,0,0.24,0l17.76-38.11c0.24-0.48,0.65-0.81,1.37-0.81h1.29c0.89,0,1.37,0.57,1.45,1.21l9.53,54.26&#xA;&#x9;&#x9;&#x9;&#x9;c0.24,1.13-0.4,1.86-1.45,1.86h-7.35c-0.73,0-1.37-0.65-1.53-1.21l-4.76-30.6c-0.08,0-0.24,0-0.24,0l-14.13,31.73&#xA;&#x9;&#x9;&#x9;&#x9;c-0.16,0.48-0.65,0.89-1.37,0.89h-1.45c-0.73,0-1.13-0.4-1.37-0.89l-14.29-31.73c0,0-0.16,0-0.24,0l-4.68,30.6&#xA;&#x9;&#x9;&#x9;&#x9;c-0.08,0.57-0.73,1.21-1.45,1.21h-7.27c-1.05,0-1.7-0.73-1.53-1.86L-3186.33,432.24z"></path>
&#x9;&#x9;&#x9;<path class="st2" d="M-3086.22,433.37c0-0.81,0.73-1.53,1.53-1.53h7.51c0.81,0,1.53,0.73,1.53,1.53v53.45&#xA;&#x9;&#x9;&#x9;&#x9;c0,0.81-0.73,1.53-1.53,1.53h-7.51c-0.81,0-1.53-0.73-1.53-1.53V433.37z"></path>
&#x9;&#x9;&#x9;<path class="st2" d="M-3025.42,433.37c0-0.81,0.65-1.53,1.53-1.53h7.43c0.81,0,1.53,0.73,1.53,1.53v45.3h26.16&#xA;&#x9;&#x9;&#x9;&#x9;c0.89,0,1.53,0.73,1.53,1.53v6.62c0,0.81-0.65,1.53-1.53,1.53h-35.12c-0.89,0-1.53-0.73-1.53-1.53V433.37z"></path>
&#x9;&#x9;&#x9;<path class="st2" d="M-2949.13,433.37c0-0.81,0.64-1.53,1.53-1.53h7.43c0.81,0,1.53,0.73,1.53,1.53v45.3h26.16&#xA;&#x9;&#x9;&#x9;&#x9;c0.89,0,1.53,0.73,1.53,1.53v6.62c0,0.81-0.65,1.53-1.53,1.53h-35.12c-0.89,0-1.53-0.73-1.53-1.53V433.37z"></path>
&#x9;&#x9;&#x9;<path class="st2" d="M-2877.6,486.26l25.11-54.34c0.24-0.48,0.65-0.89,1.37-0.89h0.81c0.81,0,1.13,0.4,1.37,0.89l24.87,54.34&#xA;&#x9;&#x9;&#x9;&#x9;c0.48,1.05-0.16,2.1-1.37,2.1h-7.02c-1.21,0-1.78-0.48-2.34-1.61l-3.96-8.72h-24.14l-3.96,8.72c-0.32,0.81-1.05,1.61-2.34,1.61&#xA;&#x9;&#x9;&#x9;&#x9;h-7.02C-2877.43,488.35-2878.08,487.31-2877.6,486.26z M-2842.72,469.06l-8.07-17.76h-0.24l-7.91,17.76H-2842.72z"></path>
&#x9;&#x9;&#x9;<g>
&#x9;&#x9;&#x9;&#x9;<path class="st2" d="M-3363.58,480.44l3.38-5.01c0.75-1.13,2.35-1.13,3.19-0.57c0.47,0.24,8.07,4.85,14.17,5.01&#xA;&#x9;&#x9;&#x9;&#x9;&#x9;c5.22,0.14,9.19-2.49,9.67-6.22c0.52-4.08-5.16-6.94-13.05-9.69c-8.82-3.07-17.65-7.91-17.65-17.44c0-7.19,6.19-15.5,21.12-15.5&#xA;&#x9;&#x9;&#x9;&#x9;&#x9;c9.57,0,16.89,4.2,18.77,5.41c0.94,0.48,1.22,1.86,0.56,2.66l-3.57,4.6c-0.75,0.97-2.16,1.61-3.28,0.97&#xA;&#x9;&#x9;&#x9;&#x9;&#x9;c-0.75-0.4-7.9-4.03-13.05-4.44c-5.34-0.43-8.26,3.07-8.26,5.65c0,3.79,3.47,6.38,11.08,9.04c9.1,3.15,19.62,7.83,19.62,18.25&#xA;&#x9;&#x9;&#x9;&#x9;&#x9;c0,8.32-8.35,15.99-21.59,15.99c-11.83,0-18.77-4.76-20.65-6.3C-3363.95,482.14-3364.42,481.73-3363.58,480.44z"></path>
&#x9;&#x9;&#x9;</g>
&#x9;&#x9;</g>
&#x9;&#x9;<g>
&#x9;&#x9;&#x9;<path class="st2" d="M-3311.82,541.51c0,4.22,2.68,4.81,4.33,4.81c1.01,0,2.02-0.11,3-0.76l1.31,1.51&#xA;&#x9;&#x9;&#x9;&#x9;c-1.28,1.08-2.8,1.49-4.26,1.49c-2.47,0-6.72-1.33-6.72-7.13c0-4.91,3.67-6.65,6.69-6.65c1.49,0,3,0.39,4.29,1.42l-1.33,1.61&#xA;&#x9;&#x9;&#x9;&#x9;c-0.94-0.62-1.97-0.78-2.98-0.78C-3309.53,537.04-3311.82,537.84-3311.82,541.51z"></path>
&#x9;&#x9;&#x9;<path class="st2" d="M-3272.23,548.43h-2.48l-1.15-3.07h-5.48l-1.15,3.07h-2.47l5-13.53h2.73L-3272.23,548.43z M-3280.53,543.21&#xA;&#x9;&#x9;&#x9;&#x9;h3.87l-1.95-5.2L-3280.53,543.21z"></path>
&#x9;&#x9;&#x9;<path class="st2" d="M-3253.42,534.91h9.1v2.2h-6.79v3.71h5.55v2.2h-5.55v5.41h-2.32V534.91z"></path>
&#x9;&#x9;&#x9;<path class="st2" d="M-3222.63,537.11v3.71h5.55v2.2h-5.55v3.21h6.79v2.2h-9.1v-13.53h9.1v2.2H-3222.63z M-3217.7,530.23h-2.5&#xA;&#x9;&#x9;&#x9;&#x9;l-1.38,3.14h2.13L-3217.7,530.23z"></path>
&#x9;&#x9;&#x9;<path class="st2" d="M-3169.44,537.13c-0.92,0-2.41,0.27-2.41,1.63c0,1.74,1.54,1.79,2.41,1.79h2.34v-1.74h2.31v1.74h1.28v2.2&#xA;&#x9;&#x9;&#x9;&#x9;h-1.28v1.9c0,1.44-1.17,3.92-4.7,3.92h-0.37c-3.55,0-4.97-1.77-4.97-3.78c0-1.47,0.44-2.73,2.18-3.21&#xA;&#x9;&#x9;&#x9;&#x9;c-1.4-0.67-1.51-2.06-1.51-2.89c0-3.16,2.64-3.78,4.54-3.78h1.35l-0.34,2.22H-3169.44z M-3169.46,546.32&#xA;&#x9;&#x9;&#x9;&#x9;c0.89,0,2.36-0.27,2.36-1.93v-1.65h-3.07c-1.19,0-2.34,0.46-2.34,1.83c0,1.67,1.81,1.74,2.64,1.74H-3169.46z"></path>
&#x9;&#x9;&#x9;<path class="st2" d="M-3120.48,541.51c0,4.22,2.68,4.81,4.33,4.81c1.01,0,2.02-0.11,3-0.76l1.31,1.51&#xA;&#x9;&#x9;&#x9;&#x9;c-1.28,1.08-2.8,1.49-4.27,1.49c-2.48,0-6.72-1.33-6.72-7.13c0-4.91,3.67-6.65,6.69-6.65c1.49,0,3,0.39,4.29,1.42l-1.33,1.61&#xA;&#x9;&#x9;&#x9;&#x9;c-0.94-0.62-1.97-0.78-2.98-0.78C-3118.19,537.04-3120.48,537.84-3120.48,541.51z"></path>
&#x9;&#x9;&#x9;<path class="st2" d="M-3093.5,541.44c0-4.91,3.53-6.65,6.49-6.65c2.96,0,6.49,1.74,6.49,6.65c0,5.8-4.01,7.13-6.49,7.13&#xA;&#x9;&#x9;&#x9;&#x9;C-3089.49,548.57-3093.5,547.24-3093.5,541.44z M-3082.86,541.51c0-3.67-2.13-4.47-4.15-4.47c-2.02,0-4.15,0.8-4.15,4.47&#xA;&#x9;&#x9;&#x9;&#x9;c0,4.22,2.52,4.81,4.15,4.81C-3085.38,546.32-3082.86,545.73-3082.86,541.51z"></path>
&#x9;&#x9;&#x9;<path class="st2" d="M-3052.3,534.91c0.85,3.07,1.93,7.08,2.84,10.11l2.13-10.11h2.41l-2.91,13.53h-3.07l-2.7-9.35l-2.71,9.35&#xA;&#x9;&#x9;&#x9;&#x9;h-3.07l-2.91-13.53h2.41l2.13,10.11c0.92-3.03,2-7.04,2.84-10.11H-3052.3z"></path>
&#x9;&#x9;&#x9;<path class="st2" d="M-3026.68,541.44c0-4.91,3.53-6.65,6.49-6.65s6.49,1.74,6.49,6.65c0,5.8-4.01,7.13-6.49,7.13&#xA;&#x9;&#x9;&#x9;&#x9;S-3026.68,547.24-3026.68,541.44z M-3016.05,541.51c0-3.67-2.13-4.47-4.15-4.47s-4.15,0.8-4.15,4.47c0,4.22,2.52,4.81,4.15,4.81&#xA;&#x9;&#x9;&#x9;&#x9;S-3016.05,545.73-3016.05,541.51z"></path>
&#x9;&#x9;&#x9;<path class="st2" d="M-2986.35,543.18c0.87,0.8,1.19,1.54,1.74,3.09l0.73,2.16h-2.5l-0.78-2.41c-0.57-1.63-1.26-2.25-2.2-2.25&#xA;&#x9;&#x9;&#x9;&#x9;h-2.66v4.65h-2.32v-13.53h5.94c1.93,0,4.31,1.1,4.31,4.31C-2984.08,540.39-2984.4,542.7-2986.35,543.18z M-2988.42,541.56&#xA;&#x9;&#x9;&#x9;&#x9;c0.92,0,2-0.07,2-2.27c0-1.83-1.01-2.18-2-2.18h-3.6v4.45H-2988.42z"></path>
&#x9;&#x9;&#x9;<path class="st2" d="M-2953.61,548.43h-3.03l-5.85-6.44v6.44h-2.32v-13.53h2.32v6.12c1.83-2.04,4.01-4.04,5.85-6.12h3.05&#xA;&#x9;&#x9;&#x9;&#x9;l-6.17,6.65L-2953.61,548.43z"></path>
&#x9;&#x9;&#x9;<path class="st2" d="M-2935.24,534.91h2.34v13.53h-2.34V534.91z"></path>
&#x9;&#x9;&#x9;<path class="st2" d="M-2910.85,538.9v9.54h-2.34v-13.53h2.48l6.58,9.7v-9.7h2.34v13.53h-2.57L-2910.85,538.9z"></path>
&#x9;&#x9;&#x9;<path class="st2" d="M-2871.18,541.26v5.48c-1.08,1.33-3.3,1.84-4.75,1.84c-2.48,0-6.72-1.33-6.72-7.13&#xA;&#x9;&#x9;&#x9;&#x9;c0-4.91,3.67-6.65,6.69-6.65c1.49,0,3,0.39,4.29,1.42l-1.33,1.61c-0.94-0.62-1.97-0.78-2.98-0.78c-2.04,0-4.33,0.8-4.33,4.47&#xA;&#x9;&#x9;&#x9;&#x9;c0,4.22,2.68,4.81,4.33,4.81c0.85,0,1.56-0.09,2.45-0.62v-2.25h-1.97v-2.2H-2871.18z"></path>
&#x9;&#x9;</g>
&#x9;&#x9;<g>
&#x9;&#x9;&#x9;<g>
&#x9;&#x9;&#x9;&#x9;<path class="st2" d="M-3247.93,377.52h1.53v13.24h-2.29v-7.65l-3.03,4.8h-1.84l-3.03-4.8v7.65h-2.29v-13.24h1.53l4.71,7.56&#xA;&#x9;&#x9;&#x9;&#x9;&#x9;L-3247.93,377.52z"></path>
&#x9;&#x9;&#x9;&#x9;<path class="st2" d="M-3219.91,379.67v3.63h5.43v2.15h-5.43v3.14h6.64v2.15h-8.91v-13.24h8.91v2.15H-3219.91z"></path>
&#x9;&#x9;&#x9;&#x9;<path class="st2" d="M-3184.64,390.76h-4.62v-13.24h4.35c2.85,0,6.35,1.62,6.35,6.39&#xA;&#x9;&#x9;&#x9;&#x9;&#x9;C-3178.56,389.43-3182.24,390.76-3184.64,390.76z M-3184.93,388.6c1.61,0,4.11-0.49,4.11-4.62c0-3.52-2.02-4.31-4.04-4.31h-2.13&#xA;&#x9;&#x9;&#x9;&#x9;&#x9;v8.93H-3184.93z"></path>
&#x9;&#x9;&#x9;</g>
&#x9;&#x9;&#x9;<g>
&#x9;&#x9;&#x9;&#x9;<path class="st2" d="M-3002.82,383.98c0,4.13,2.62,4.71,4.24,4.71c0.99,0,1.97-0.11,2.94-0.74l1.28,1.48&#xA;&#x9;&#x9;&#x9;&#x9;&#x9;c-1.26,1.05-2.74,1.46-4.17,1.46c-2.42,0-6.57-1.3-6.57-6.98c0-4.8,3.59-6.51,6.55-6.51c1.46,0,2.94,0.38,4.2,1.39l-1.3,1.57&#xA;&#x9;&#x9;&#x9;&#x9;&#x9;c-0.92-0.61-1.93-0.76-2.92-0.76C-3000.57,379.61-3002.82,380.39-3002.82,383.98z"></path>
&#x9;&#x9;&#x9;&#x9;<path class="st2" d="M-2971.47,383.91c0-4.8,3.46-6.51,6.35-6.51c2.89,0,6.35,1.71,6.35,6.51c0,5.68-3.93,6.98-6.35,6.98&#xA;&#x9;&#x9;&#x9;&#x9;&#x9;C-2967.54,390.89-2971.47,389.59-2971.47,383.91z M-2961.06,383.98c0-3.59-2.09-4.37-4.06-4.37s-4.06,0.79-4.06,4.37&#xA;&#x9;&#x9;&#x9;&#x9;&#x9;c0,4.13,2.47,4.71,4.06,4.71C-2963.53,388.69-2961.06,388.11-2961.06,383.98z"></path>
&#x9;&#x9;&#x9;&#x9;<path class="st2" d="M-2932.61,388.6h6.15v2.15h-8.41v-13.24h2.27V388.6z"></path>
&#x9;&#x9;&#x9;</g>
&#x9;&#x9;</g>
&#x9;</g>
</g>
<g>
&#x9;<rect x="-4349.65" y="868" class="st3" width="771.63" height="767.1"></rect>
&#x9;<g>
&#x9;&#x9;<g>
&#x9;&#x9;&#x9;<g>
&#x9;&#x9;&#x9;&#x9;<g>
&#x9;&#x9;&#x9;&#x9;&#x9;<path class="st2" d="M-3962.34,1259.16c-47.61,0-86.34-38.73-86.34-86.34c0-47.61,38.73-86.34,86.34-86.34&#xA;&#x9;&#x9;&#x9;&#x9;&#x9;&#x9;s86.34,38.73,86.34,86.34C-3875.99,1220.43-3914.72,1259.16-3962.34,1259.16z M-3962.34,1095.69&#xA;&#x9;&#x9;&#x9;&#x9;&#x9;&#x9;c-42.53,0-77.13,34.6-77.13,77.13c0,42.53,34.6,77.13,77.13,77.13s77.13-34.6,77.13-77.13&#xA;&#x9;&#x9;&#x9;&#x9;&#x9;&#x9;C-3885.2,1130.29-3919.8,1095.69-3962.34,1095.69z"></path>
&#x9;&#x9;&#x9;&#x9;</g>
&#x9;&#x9;&#x9;</g>
&#x9;&#x9;&#x9;<path class="st2" d="M-3920.85,1200.3l-0.05-1.2c-1.2-17.24-19.41-30.74-41.44-30.74c-16.09,0-29.51-8.45-32.11-19.58&#xA;&#x9;&#x9;&#x9;&#x9;c4.19-2.28,6.93-2.8,6.93-2.8c7.89-1.62,16.29-0.76,23.64,2.42c12,5.19,25.76,5.19,37.76,0l2.55-1.1c1.73-0.75,2.8-2.51,2.67-4.4&#xA;&#x9;&#x9;&#x9;&#x9;c-1.2-17.24-19.41-30.74-41.44-30.74c-22.89,0-41.51,14.6-41.51,32.55c0,0.2,0.01,0.4,0.02,0.6l0.05,1.22&#xA;&#x9;&#x9;&#x9;&#x9;c1.2,17.24,19.41,30.74,41.44,30.74c16.47,0,30.15,8.86,32.28,20.37c-3.43,1.29-7.23,2-7.23,2c-7.93,1.57-16.01,0.71-23.38-2.48&#xA;&#x9;&#x9;&#x9;&#x9;c-12-5.2-25.76-5.2-37.76,0l-2.68,1.16c-1.73,0.75-2.81,2.51-2.68,4.4c1.2,17.24,19.41,30.74,41.44,30.74&#xA;&#x9;&#x9;&#x9;&#x9;c22.89,0,41.51-14.6,41.51-32.55C-3920.83,1200.71-3920.84,1200.5-3920.85,1200.3z M-3962.34,1121.08&#xA;&#x9;&#x9;&#x9;&#x9;c15.95,0,29.31,8.31,32.07,19.41c-9.6,3.96-20.52,3.87-30.07-0.26c-9.15-3.96-19.16-4.99-28.97-2.98&#xA;&#x9;&#x9;&#x9;&#x9;c-1.51,0.27-3.09,0.84-4.52,1.46C-3990.14,1128.58-3977.44,1121.08-3962.34,1121.08z M-3962.34,1224.55&#xA;&#x9;&#x9;&#x9;&#x9;c-15.95,0-29.31-8.31-32.07-19.41c9.64-4.02,20.62-3.95,30.21,0.2c9.03,3.91,18.94,4.97,28.65,3.04&#xA;&#x9;&#x9;&#x9;&#x9;c1.28-0.21,3.03-0.79,4.69-1.43C-3934.55,1217.07-3947.25,1224.55-3962.34,1224.55z"></path>
&#x9;&#x9;</g>
&#x9;&#x9;<g>
&#x9;&#x9;&#x9;<path class="st2" d="M-4144.88,1301.37c0-0.81,0.65-1.53,1.53-1.53h35.61c0.89,0,1.53,0.73,1.53,1.53v6.62&#xA;&#x9;&#x9;&#x9;&#x9;c0,0.81-0.65,1.53-1.53,1.53h-26.64v13.24h22.69c0.81,0,1.53,0.73,1.53,1.53v6.7c0,0.89-0.73,1.53-1.53,1.53h-22.69v14.13h26.64&#xA;&#x9;&#x9;&#x9;&#x9;c0.89,0,1.53,0.73,1.53,1.53v6.62c0,0.81-0.65,1.53-1.53,1.53h-35.61c-0.89,0-1.53-0.73-1.53-1.53V1301.37z"></path>
&#x9;&#x9;&#x9;<path class="st2" d="M-4055.99,1300.24c0.08-0.65,0.56-1.21,1.45-1.21h1.29c0.65,0,1.13,0.32,1.37,0.81l17.76,38.11&#xA;&#x9;&#x9;&#x9;&#x9;c0.16,0,0.16,0,0.24,0l17.76-38.11c0.24-0.48,0.65-0.81,1.37-0.81h1.29c0.89,0,1.37,0.57,1.45,1.21l9.53,54.26&#xA;&#x9;&#x9;&#x9;&#x9;c0.24,1.13-0.4,1.86-1.45,1.86h-7.35c-0.73,0-1.37-0.65-1.53-1.21l-4.76-30.6c-0.08,0-0.24,0-0.24,0l-14.13,31.73&#xA;&#x9;&#x9;&#x9;&#x9;c-0.16,0.48-0.65,0.89-1.37,0.89h-1.45c-0.73,0-1.13-0.4-1.37-0.89l-14.29-31.73c0,0-0.16,0-0.24,0l-4.68,30.6&#xA;&#x9;&#x9;&#x9;&#x9;c-0.08,0.57-0.73,1.21-1.45,1.21h-7.27c-1.05,0-1.7-0.73-1.53-1.86L-4055.99,1300.24z"></path>
&#x9;&#x9;&#x9;<path class="st2" d="M-3955.88,1301.37c0-0.81,0.73-1.53,1.53-1.53h7.51c0.81,0,1.53,0.73,1.53,1.53v53.45&#xA;&#x9;&#x9;&#x9;&#x9;c0,0.81-0.73,1.53-1.53,1.53h-7.51c-0.81,0-1.53-0.73-1.53-1.53V1301.37z"></path>
&#x9;&#x9;&#x9;<path class="st2" d="M-3895.08,1301.37c0-0.81,0.65-1.53,1.53-1.53h7.43c0.81,0,1.53,0.73,1.53,1.53v45.3h26.16&#xA;&#x9;&#x9;&#x9;&#x9;c0.89,0,1.53,0.73,1.53,1.53v6.62c0,0.81-0.65,1.53-1.53,1.53h-35.12c-0.89,0-1.53-0.73-1.53-1.53V1301.37z"></path>
&#x9;&#x9;&#x9;<path class="st2" d="M-3818.79,1301.37c0-0.81,0.64-1.53,1.53-1.53h7.43c0.81,0,1.53,0.73,1.53,1.53v45.3h26.16&#xA;&#x9;&#x9;&#x9;&#x9;c0.89,0,1.53,0.73,1.53,1.53v6.62c0,0.81-0.65,1.53-1.53,1.53h-35.12c-0.89,0-1.53-0.73-1.53-1.53V1301.37z"></path>
&#x9;&#x9;&#x9;<path class="st2" d="M-3747.26,1354.26l25.11-54.34c0.24-0.48,0.65-0.89,1.37-0.89h0.81c0.81,0,1.13,0.4,1.37,0.89l24.87,54.34&#xA;&#x9;&#x9;&#x9;&#x9;c0.48,1.05-0.16,2.1-1.37,2.1h-7.02c-1.21,0-1.78-0.48-2.34-1.61l-3.96-8.72h-24.14l-3.96,8.72c-0.32,0.81-1.05,1.61-2.34,1.61&#xA;&#x9;&#x9;&#x9;&#x9;h-7.02C-3747.1,1356.35-3747.74,1355.31-3747.26,1354.26z M-3712.38,1337.06l-8.07-17.76h-0.24l-7.91,17.76H-3712.38z"></path>
&#x9;&#x9;&#x9;<g>
&#x9;&#x9;&#x9;&#x9;<path class="st2" d="M-4233.24,1348.44l3.38-5.01c0.75-1.13,2.35-1.13,3.19-0.57c0.47,0.24,8.07,4.85,14.17,5.01&#xA;&#x9;&#x9;&#x9;&#x9;&#x9;c5.22,0.14,9.19-2.49,9.67-6.22c0.52-4.08-5.16-6.94-13.05-9.69c-8.82-3.07-17.65-7.91-17.65-17.44c0-7.19,6.19-15.5,21.12-15.5&#xA;&#x9;&#x9;&#x9;&#x9;&#x9;c9.57,0,16.89,4.2,18.77,5.41c0.94,0.48,1.22,1.86,0.56,2.66l-3.57,4.6c-0.75,0.97-2.16,1.61-3.28,0.97&#xA;&#x9;&#x9;&#x9;&#x9;&#x9;c-0.75-0.4-7.9-4.03-13.05-4.44c-5.34-0.43-8.26,3.07-8.26,5.65c0,3.79,3.47,6.38,11.08,9.04c9.1,3.15,19.62,7.83,19.62,18.25&#xA;&#x9;&#x9;&#x9;&#x9;&#x9;c0,8.32-8.35,15.99-21.59,15.99c-11.83,0-18.77-4.76-20.65-6.3C-4233.62,1350.14-4234.09,1349.73-4233.24,1348.44z"></path>
&#x9;&#x9;&#x9;</g>
&#x9;&#x9;</g>
&#x9;&#x9;<g>
&#x9;&#x9;&#x9;<path class="st2" d="M-4181.49,1409.51c0,4.22,2.68,4.81,4.33,4.81c1.01,0,2.02-0.11,3-0.76l1.31,1.51&#xA;&#x9;&#x9;&#x9;&#x9;c-1.28,1.08-2.8,1.49-4.27,1.49c-2.47,0-6.72-1.33-6.72-7.13c0-4.91,3.67-6.65,6.69-6.65c1.49,0,3,0.39,4.29,1.42l-1.33,1.61&#xA;&#x9;&#x9;&#x9;&#x9;c-0.94-0.62-1.97-0.78-2.98-0.78C-4179.19,1405.04-4181.49,1405.84-4181.49,1409.51z"></path>
&#x9;&#x9;&#x9;<path class="st2" d="M-4141.89,1416.43h-2.48l-1.15-3.07h-5.48l-1.15,3.07h-2.47l5-13.53h2.73L-4141.89,1416.43z&#xA;&#x9;&#x9;&#x9;&#x9; M-4150.19,1411.21h3.88l-1.95-5.2L-4150.19,1411.21z"></path>
&#x9;&#x9;&#x9;<path class="st2" d="M-4123.09,1402.91h9.1v2.2h-6.79v3.71h5.55v2.2h-5.55v5.41h-2.32V1402.91z"></path>
&#x9;&#x9;&#x9;<path class="st2" d="M-4092.29,1405.11v3.71h5.55v2.2h-5.55v3.21h6.79v2.2h-9.1v-13.53h9.1v2.2H-4092.29z M-4087.37,1398.23h-2.5&#xA;&#x9;&#x9;&#x9;&#x9;l-1.38,3.14h2.13L-4087.37,1398.23z"></path>
&#x9;&#x9;&#x9;<path class="st2" d="M-4039.1,1405.13c-0.92,0-2.41,0.27-2.41,1.63c0,1.74,1.54,1.79,2.41,1.79h2.34v-1.74h2.31v1.74h1.28v2.2&#xA;&#x9;&#x9;&#x9;&#x9;h-1.28v1.9c0,1.44-1.17,3.92-4.7,3.92h-0.37c-3.55,0-4.97-1.77-4.97-3.78c0-1.47,0.44-2.73,2.18-3.21&#xA;&#x9;&#x9;&#x9;&#x9;c-1.4-0.67-1.51-2.06-1.51-2.89c0-3.16,2.64-3.78,4.54-3.78h1.35l-0.34,2.22H-4039.1z M-4039.12,1414.32&#xA;&#x9;&#x9;&#x9;&#x9;c0.89,0,2.36-0.27,2.36-1.93v-1.65h-3.07c-1.19,0-2.34,0.46-2.34,1.83c0,1.67,1.81,1.74,2.64,1.74H-4039.12z"></path>
&#x9;&#x9;&#x9;<path class="st2" d="M-3990.15,1409.51c0,4.22,2.68,4.81,4.33,4.81c1.01,0,2.02-0.11,3-0.76l1.31,1.51&#xA;&#x9;&#x9;&#x9;&#x9;c-1.28,1.08-2.8,1.49-4.27,1.49c-2.48,0-6.72-1.33-6.72-7.13c0-4.91,3.67-6.65,6.69-6.65c1.49,0,3,0.39,4.29,1.42l-1.33,1.61&#xA;&#x9;&#x9;&#x9;&#x9;c-0.94-0.62-1.97-0.78-2.98-0.78C-3987.86,1405.04-3990.15,1405.84-3990.15,1409.51z"></path>
&#x9;&#x9;&#x9;<path class="st2" d="M-3963.16,1409.44c0-4.91,3.53-6.65,6.49-6.65c2.96,0,6.49,1.74,6.49,6.65c0,5.8-4.01,7.13-6.49,7.13&#xA;&#x9;&#x9;&#x9;&#x9;C-3959.15,1416.57-3963.16,1415.24-3963.16,1409.44z M-3952.52,1409.51c0-3.67-2.13-4.47-4.15-4.47c-2.02,0-4.15,0.8-4.15,4.47&#xA;&#x9;&#x9;&#x9;&#x9;c0,4.22,2.52,4.81,4.15,4.81C-3955.04,1414.32-3952.52,1413.73-3952.52,1409.51z"></path>
&#x9;&#x9;&#x9;<path class="st2" d="M-3921.96,1402.91c0.85,3.07,1.93,7.08,2.84,10.11l2.13-10.11h2.41l-2.91,13.53h-3.07l-2.7-9.35l-2.71,9.35&#xA;&#x9;&#x9;&#x9;&#x9;h-3.07l-2.91-13.53h2.41l2.13,10.11c0.92-3.03,2-7.04,2.84-10.11H-3921.96z"></path>
&#x9;&#x9;&#x9;<path class="st2" d="M-3896.35,1409.44c0-4.91,3.53-6.65,6.49-6.65s6.49,1.74,6.49,6.65c0,5.8-4.01,7.13-6.49,7.13&#xA;&#x9;&#x9;&#x9;&#x9;S-3896.35,1415.24-3896.35,1409.44z M-3885.71,1409.51c0-3.67-2.13-4.47-4.15-4.47s-4.15,0.8-4.15,4.47&#xA;&#x9;&#x9;&#x9;&#x9;c0,4.22,2.52,4.81,4.15,4.81S-3885.71,1413.73-3885.71,1409.51z"></path>
&#x9;&#x9;&#x9;<path class="st2" d="M-3856.02,1411.18c0.87,0.8,1.19,1.54,1.74,3.09l0.73,2.16h-2.5l-0.78-2.41c-0.57-1.63-1.26-2.25-2.2-2.25&#xA;&#x9;&#x9;&#x9;&#x9;h-2.66v4.65h-2.32v-13.53h5.94c1.93,0,4.31,1.1,4.31,4.31C-3853.75,1408.39-3854.07,1410.7-3856.02,1411.18z M-3858.08,1409.56&#xA;&#x9;&#x9;&#x9;&#x9;c0.92,0,2-0.07,2-2.27c0-1.83-1.01-2.18-2-2.18h-3.6v4.45H-3858.08z"></path>
&#x9;&#x9;&#x9;<path class="st2" d="M-3823.28,1416.43h-3.03l-5.85-6.44v6.44h-2.32v-13.53h2.32v6.12c1.83-2.04,4.01-4.04,5.85-6.12h3.05&#xA;&#x9;&#x9;&#x9;&#x9;l-6.17,6.65L-3823.28,1416.43z"></path>
&#x9;&#x9;&#x9;<path class="st2" d="M-3804.91,1402.91h2.34v13.53h-2.34V1402.91z"></path>
&#x9;&#x9;&#x9;<path class="st2" d="M-3780.51,1406.9v9.54h-2.34v-13.53h2.48l6.58,9.7v-9.7h2.34v13.53h-2.57L-3780.51,1406.9z"></path>
&#x9;&#x9;&#x9;<path class="st2" d="M-3740.85,1409.26v5.48c-1.08,1.33-3.3,1.83-4.75,1.83c-2.48,0-6.72-1.33-6.72-7.13&#xA;&#x9;&#x9;&#x9;&#x9;c0-4.91,3.67-6.65,6.69-6.65c1.49,0,3,0.39,4.29,1.42l-1.33,1.61c-0.94-0.62-1.97-0.78-2.98-0.78c-2.04,0-4.33,0.8-4.33,4.47&#xA;&#x9;&#x9;&#x9;&#x9;c0,4.22,2.68,4.81,4.33,4.81c0.85,0,1.56-0.09,2.45-0.62v-2.25h-1.97v-2.2H-3740.85z"></path>
&#x9;&#x9;</g>
&#x9;&#x9;<g>
&#x9;&#x9;&#x9;<g>
&#x9;&#x9;&#x9;&#x9;<path class="st2" d="M-4117.6,1245.52h1.53v13.24h-2.29v-7.65l-3.03,4.8h-1.84l-3.03-4.8v7.65h-2.29v-13.24h1.53l4.71,7.56&#xA;&#x9;&#x9;&#x9;&#x9;&#x9;L-4117.6,1245.52z"></path>
&#x9;&#x9;&#x9;&#x9;<path class="st2" d="M-4089.57,1247.67v3.63h5.43v2.15h-5.43v3.14h6.64v2.15h-8.91v-13.24h8.91v2.15H-4089.57z"></path>
&#x9;&#x9;&#x9;&#x9;<path class="st2" d="M-4054.3,1258.76h-4.62v-13.24h4.35c2.85,0,6.35,1.62,6.35,6.39&#xA;&#x9;&#x9;&#x9;&#x9;&#x9;C-4048.22,1257.43-4051.9,1258.76-4054.3,1258.76z M-4054.59,1256.6c1.61,0,4.11-0.49,4.11-4.62c0-3.52-2.02-4.31-4.04-4.31&#xA;&#x9;&#x9;&#x9;&#x9;&#x9;h-2.13v8.93H-4054.59z"></path>
&#x9;&#x9;&#x9;</g>
&#x9;&#x9;&#x9;<g>
&#x9;&#x9;&#x9;&#x9;<path class="st2" d="M-3872.48,1251.98c0,4.13,2.62,4.71,4.24,4.71c0.99,0,1.97-0.11,2.94-0.74l1.28,1.48&#xA;&#x9;&#x9;&#x9;&#x9;&#x9;c-1.26,1.05-2.74,1.46-4.17,1.46c-2.42,0-6.57-1.3-6.57-6.98c0-4.8,3.59-6.51,6.55-6.51c1.46,0,2.94,0.38,4.2,1.39l-1.3,1.57&#xA;&#x9;&#x9;&#x9;&#x9;&#x9;c-0.92-0.61-1.93-0.76-2.92-0.76C-3870.23,1247.61-3872.48,1248.39-3872.48,1251.98z"></path>
&#x9;&#x9;&#x9;&#x9;<path class="st2" d="M-3841.13,1251.91c0-4.8,3.46-6.51,6.35-6.51c2.89,0,6.35,1.71,6.35,6.51c0,5.68-3.93,6.98-6.35,6.98&#xA;&#x9;&#x9;&#x9;&#x9;&#x9;C-3837.21,1258.89-3841.13,1257.59-3841.13,1251.91z M-3830.72,1251.98c0-3.59-2.09-4.37-4.06-4.37s-4.06,0.79-4.06,4.37&#xA;&#x9;&#x9;&#x9;&#x9;&#x9;c0,4.13,2.47,4.71,4.06,4.71C-3833.19,1256.69-3830.72,1256.11-3830.72,1251.98z"></path>
&#x9;&#x9;&#x9;&#x9;<path class="st2" d="M-3802.27,1256.6h6.15v2.15h-8.41v-13.24h2.27V1256.6z"></path>
&#x9;&#x9;&#x9;</g>
&#x9;&#x9;</g>
&#x9;</g>
</g>
<g>
&#x9;<rect x="-4349.65" y="0" class="st4" width="771.63" height="767.1"></rect>
&#x9;<g>
&#x9;&#x9;<g>
&#x9;&#x9;&#x9;<g>
&#x9;&#x9;&#x9;&#x9;<g>
&#x9;&#x9;&#x9;&#x9;&#x9;<path class="st2" d="M-3962.34,391.16c-47.61,0-86.34-38.73-86.34-86.34c0-47.61,38.73-86.34,86.34-86.34&#xA;&#x9;&#x9;&#x9;&#x9;&#x9;&#x9;s86.34,38.73,86.34,86.34C-3875.99,352.43-3914.72,391.16-3962.34,391.16z M-3962.34,227.69c-42.53,0-77.13,34.6-77.13,77.13&#xA;&#x9;&#x9;&#x9;&#x9;&#x9;&#x9;c0,42.53,34.6,77.13,77.13,77.13s77.13-34.6,77.13-77.13C-3885.2,262.29-3919.8,227.69-3962.34,227.69z"></path>
&#x9;&#x9;&#x9;&#x9;</g>
&#x9;&#x9;&#x9;</g>
&#x9;&#x9;&#x9;<path class="st2" d="M-3920.85,332.3l-0.05-1.2c-1.2-17.24-19.41-30.74-41.44-30.74c-16.09,0-29.51-8.45-32.11-19.58&#xA;&#x9;&#x9;&#x9;&#x9;c4.19-2.28,6.93-2.8,6.93-2.8c7.89-1.62,16.29-0.76,23.64,2.42c12,5.19,25.76,5.19,37.76,0l2.55-1.1c1.73-0.75,2.8-2.51,2.67-4.4&#xA;&#x9;&#x9;&#x9;&#x9;c-1.2-17.24-19.41-30.74-41.44-30.74c-22.89,0-41.51,14.6-41.51,32.55c0,0.2,0.01,0.4,0.02,0.6l0.05,1.22&#xA;&#x9;&#x9;&#x9;&#x9;c1.2,17.24,19.41,30.74,41.44,30.74c16.47,0,30.15,8.86,32.28,20.37c-3.43,1.29-7.23,2-7.23,2c-7.93,1.57-16.01,0.71-23.38-2.48&#xA;&#x9;&#x9;&#x9;&#x9;c-12-5.2-25.76-5.2-37.76,0l-2.68,1.16c-1.73,0.75-2.81,2.51-2.68,4.4c1.2,17.24,19.41,30.74,41.44,30.74&#xA;&#x9;&#x9;&#x9;&#x9;c22.89,0,41.51-14.6,41.51-32.55C-3920.83,332.71-3920.84,332.5-3920.85,332.3z M-3962.34,253.08c15.95,0,29.31,8.31,32.07,19.41&#xA;&#x9;&#x9;&#x9;&#x9;c-9.6,3.96-20.52,3.87-30.07-0.26c-9.15-3.96-19.16-4.99-28.97-2.98c-1.51,0.27-3.09,0.84-4.52,1.46&#xA;&#x9;&#x9;&#x9;&#x9;C-3990.14,260.58-3977.44,253.08-3962.34,253.08z M-3962.34,356.55c-15.95,0-29.31-8.31-32.07-19.41&#xA;&#x9;&#x9;&#x9;&#x9;c9.64-4.02,20.62-3.95,30.21,0.2c9.03,3.91,18.94,4.97,28.65,3.04c1.28-0.21,3.03-0.79,4.69-1.43&#xA;&#x9;&#x9;&#x9;&#x9;C-3934.55,349.07-3947.25,356.55-3962.34,356.55z"></path>
&#x9;&#x9;</g>
&#x9;&#x9;<g>
&#x9;&#x9;&#x9;<path class="st2" d="M-4144.88,433.37c0-0.81,0.65-1.53,1.53-1.53h35.61c0.89,0,1.53,0.73,1.53,1.53v6.62&#xA;&#x9;&#x9;&#x9;&#x9;c0,0.81-0.65,1.53-1.53,1.53h-26.64v13.24h22.69c0.81,0,1.53,0.73,1.53,1.53v6.7c0,0.89-0.73,1.53-1.53,1.53h-22.69v14.13h26.64&#xA;&#x9;&#x9;&#x9;&#x9;c0.89,0,1.53,0.73,1.53,1.53v6.62c0,0.81-0.65,1.53-1.53,1.53h-35.61c-0.89,0-1.53-0.73-1.53-1.53V433.37z"></path>
&#x9;&#x9;&#x9;<path class="st2" d="M-4055.99,432.24c0.08-0.65,0.56-1.21,1.45-1.21h1.29c0.65,0,1.13,0.32,1.37,0.81l17.76,38.11&#xA;&#x9;&#x9;&#x9;&#x9;c0.16,0,0.16,0,0.24,0l17.76-38.11c0.24-0.48,0.65-0.81,1.37-0.81h1.29c0.89,0,1.37,0.57,1.45,1.21l9.53,54.26&#xA;&#x9;&#x9;&#x9;&#x9;c0.24,1.13-0.4,1.86-1.45,1.86h-7.35c-0.73,0-1.37-0.65-1.53-1.21l-4.76-30.6c-0.08,0-0.24,0-0.24,0l-14.13,31.73&#xA;&#x9;&#x9;&#x9;&#x9;c-0.16,0.48-0.65,0.89-1.37,0.89h-1.45c-0.73,0-1.13-0.4-1.37-0.89l-14.29-31.73c0,0-0.16,0-0.24,0l-4.68,30.6&#xA;&#x9;&#x9;&#x9;&#x9;c-0.08,0.57-0.73,1.21-1.45,1.21h-7.27c-1.05,0-1.7-0.73-1.53-1.86L-4055.99,432.24z"></path>
&#x9;&#x9;&#x9;<path class="st2" d="M-3955.88,433.37c0-0.81,0.73-1.53,1.53-1.53h7.51c0.81,0,1.53,0.73,1.53,1.53v53.45&#xA;&#x9;&#x9;&#x9;&#x9;c0,0.81-0.73,1.53-1.53,1.53h-7.51c-0.81,0-1.53-0.73-1.53-1.53V433.37z"></path>
&#x9;&#x9;&#x9;<path class="st2" d="M-3895.08,433.37c0-0.81,0.65-1.53,1.53-1.53h7.43c0.81,0,1.53,0.73,1.53,1.53v45.3h26.16&#xA;&#x9;&#x9;&#x9;&#x9;c0.89,0,1.53,0.73,1.53,1.53v6.62c0,0.81-0.65,1.53-1.53,1.53h-35.12c-0.89,0-1.53-0.73-1.53-1.53V433.37z"></path>
&#x9;&#x9;&#x9;<path class="st2" d="M-3818.79,433.37c0-0.81,0.64-1.53,1.53-1.53h7.43c0.81,0,1.53,0.73,1.53,1.53v45.3h26.16&#xA;&#x9;&#x9;&#x9;&#x9;c0.89,0,1.53,0.73,1.53,1.53v6.62c0,0.81-0.65,1.53-1.53,1.53h-35.12c-0.89,0-1.53-0.73-1.53-1.53V433.37z"></path>
&#x9;&#x9;&#x9;<path class="st2" d="M-3747.26,486.26l25.11-54.34c0.24-0.48,0.65-0.89,1.37-0.89h0.81c0.81,0,1.13,0.4,1.37,0.89l24.87,54.34&#xA;&#x9;&#x9;&#x9;&#x9;c0.48,1.05-0.16,2.1-1.37,2.1h-7.02c-1.21,0-1.78-0.48-2.34-1.61l-3.96-8.72h-24.14l-3.96,8.72c-0.32,0.81-1.05,1.61-2.34,1.61&#xA;&#x9;&#x9;&#x9;&#x9;h-7.02C-3747.1,488.35-3747.74,487.31-3747.26,486.26z M-3712.38,469.06l-8.07-17.76h-0.24l-7.91,17.76H-3712.38z"></path>
&#x9;&#x9;&#x9;<g>
&#x9;&#x9;&#x9;&#x9;<path class="st2" d="M-4233.24,480.44l3.38-5.01c0.75-1.13,2.35-1.13,3.19-0.57c0.47,0.24,8.07,4.85,14.17,5.01&#xA;&#x9;&#x9;&#x9;&#x9;&#x9;c5.22,0.14,9.19-2.49,9.67-6.22c0.52-4.08-5.16-6.94-13.05-9.69c-8.82-3.07-17.65-7.91-17.65-17.44c0-7.19,6.19-15.5,21.12-15.5&#xA;&#x9;&#x9;&#x9;&#x9;&#x9;c9.57,0,16.89,4.2,18.77,5.41c0.94,0.48,1.22,1.86,0.56,2.66l-3.57,4.6c-0.75,0.97-2.16,1.61-3.28,0.97&#xA;&#x9;&#x9;&#x9;&#x9;&#x9;c-0.75-0.4-7.9-4.03-13.05-4.44c-5.34-0.43-8.26,3.07-8.26,5.65c0,3.79,3.47,6.38,11.08,9.04c9.1,3.15,19.62,7.83,19.62,18.25&#xA;&#x9;&#x9;&#x9;&#x9;&#x9;c0,8.32-8.35,15.99-21.59,15.99c-11.83,0-18.77-4.76-20.65-6.3C-4233.62,482.14-4234.09,481.73-4233.24,480.44z"></path>
&#x9;&#x9;&#x9;</g>
&#x9;&#x9;</g>
&#x9;&#x9;<g>
&#x9;&#x9;&#x9;<path class="st2" d="M-4181.49,541.51c0,4.22,2.68,4.81,4.33,4.81c1.01,0,2.02-0.11,3-0.76l1.31,1.51&#xA;&#x9;&#x9;&#x9;&#x9;c-1.28,1.08-2.8,1.49-4.27,1.49c-2.47,0-6.72-1.33-6.72-7.13c0-4.91,3.67-6.65,6.69-6.65c1.49,0,3,0.39,4.29,1.42l-1.33,1.61&#xA;&#x9;&#x9;&#x9;&#x9;c-0.94-0.62-1.97-0.78-2.98-0.78C-4179.19,537.04-4181.49,537.84-4181.49,541.51z"></path>
&#x9;&#x9;&#x9;<path class="st2" d="M-4141.89,548.43h-2.48l-1.15-3.07h-5.48l-1.15,3.07h-2.47l5-13.53h2.73L-4141.89,548.43z M-4150.19,543.21&#xA;&#x9;&#x9;&#x9;&#x9;h3.88l-1.95-5.2L-4150.19,543.21z"></path>
&#x9;&#x9;&#x9;<path class="st2" d="M-4123.09,534.91h9.1v2.2h-6.79v3.71h5.55v2.2h-5.55v5.41h-2.32V534.91z"></path>
&#x9;&#x9;&#x9;<path class="st2" d="M-4092.29,537.11v3.71h5.55v2.2h-5.55v3.21h6.79v2.2h-9.1v-13.53h9.1v2.2H-4092.29z M-4087.37,530.23h-2.5&#xA;&#x9;&#x9;&#x9;&#x9;l-1.38,3.14h2.13L-4087.37,530.23z"></path>
&#x9;&#x9;&#x9;<path class="st2" d="M-4039.1,537.13c-0.92,0-2.41,0.27-2.41,1.63c0,1.74,1.54,1.79,2.41,1.79h2.34v-1.74h2.31v1.74h1.28v2.2&#xA;&#x9;&#x9;&#x9;&#x9;h-1.28v1.9c0,1.44-1.17,3.92-4.7,3.92h-0.37c-3.55,0-4.97-1.77-4.97-3.78c0-1.47,0.44-2.73,2.18-3.21&#xA;&#x9;&#x9;&#x9;&#x9;c-1.4-0.67-1.51-2.06-1.51-2.89c0-3.16,2.64-3.78,4.54-3.78h1.35l-0.34,2.22H-4039.1z M-4039.12,546.32&#xA;&#x9;&#x9;&#x9;&#x9;c0.89,0,2.36-0.27,2.36-1.93v-1.65h-3.07c-1.19,0-2.34,0.46-2.34,1.83c0,1.67,1.81,1.74,2.64,1.74H-4039.12z"></path>
&#x9;&#x9;&#x9;<path class="st2" d="M-3990.15,541.51c0,4.22,2.68,4.81,4.33,4.81c1.01,0,2.02-0.11,3-0.76l1.31,1.51&#xA;&#x9;&#x9;&#x9;&#x9;c-1.28,1.08-2.8,1.49-4.27,1.49c-2.48,0-6.72-1.33-6.72-7.13c0-4.91,3.67-6.65,6.69-6.65c1.49,0,3,0.39,4.29,1.42l-1.33,1.61&#xA;&#x9;&#x9;&#x9;&#x9;c-0.94-0.62-1.97-0.78-2.98-0.78C-3987.86,537.04-3990.15,537.84-3990.15,541.51z"></path>
&#x9;&#x9;&#x9;<path class="st2" d="M-3963.16,541.44c0-4.91,3.53-6.65,6.49-6.65c2.96,0,6.49,1.74,6.49,6.65c0,5.8-4.01,7.13-6.49,7.13&#xA;&#x9;&#x9;&#x9;&#x9;C-3959.15,548.57-3963.16,547.24-3963.16,541.44z M-3952.52,541.51c0-3.67-2.13-4.47-4.15-4.47c-2.02,0-4.15,0.8-4.15,4.47&#xA;&#x9;&#x9;&#x9;&#x9;c0,4.22,2.52,4.81,4.15,4.81C-3955.04,546.32-3952.52,545.73-3952.52,541.51z"></path>
&#x9;&#x9;&#x9;<path class="st2" d="M-3921.96,534.91c0.85,3.07,1.93,7.08,2.84,10.11l2.13-10.11h2.41l-2.91,13.53h-3.07l-2.7-9.35l-2.71,9.35&#xA;&#x9;&#x9;&#x9;&#x9;h-3.07l-2.91-13.53h2.41l2.13,10.11c0.92-3.03,2-7.04,2.84-10.11H-3921.96z"></path>
&#x9;&#x9;&#x9;<path class="st2" d="M-3896.35,541.44c0-4.91,3.53-6.65,6.49-6.65s6.49,1.74,6.49,6.65c0,5.8-4.01,7.13-6.49,7.13&#xA;&#x9;&#x9;&#x9;&#x9;S-3896.35,547.24-3896.35,541.44z M-3885.71,541.51c0-3.67-2.13-4.47-4.15-4.47s-4.15,0.8-4.15,4.47c0,4.22,2.52,4.81,4.15,4.81&#xA;&#x9;&#x9;&#x9;&#x9;S-3885.71,545.73-3885.71,541.51z"></path>
&#x9;&#x9;&#x9;<path class="st2" d="M-3856.02,543.18c0.87,0.8,1.19,1.54,1.74,3.09l0.73,2.16h-2.5l-0.78-2.41c-0.57-1.63-1.26-2.25-2.2-2.25&#xA;&#x9;&#x9;&#x9;&#x9;h-2.66v4.65h-2.32v-13.53h5.94c1.93,0,4.31,1.1,4.31,4.31C-3853.75,540.39-3854.07,542.7-3856.02,543.18z M-3858.08,541.56&#xA;&#x9;&#x9;&#x9;&#x9;c0.92,0,2-0.07,2-2.27c0-1.83-1.01-2.18-2-2.18h-3.6v4.45H-3858.08z"></path>
&#x9;&#x9;&#x9;<path class="st2" d="M-3823.28,548.43h-3.03l-5.85-6.44v6.44h-2.32v-13.53h2.32v6.12c1.83-2.04,4.01-4.04,5.85-6.12h3.05&#xA;&#x9;&#x9;&#x9;&#x9;l-6.17,6.65L-3823.28,548.43z"></path>
&#x9;&#x9;&#x9;<path class="st2" d="M-3804.91,534.91h2.34v13.53h-2.34V534.91z"></path>
&#x9;&#x9;&#x9;<path class="st2" d="M-3780.51,538.9v9.54h-2.34v-13.53h2.48l6.58,9.7v-9.7h2.34v13.53h-2.57L-3780.51,538.9z"></path>
&#x9;&#x9;&#x9;<path class="st2" d="M-3740.85,541.26v5.48c-1.08,1.33-3.3,1.84-4.75,1.84c-2.48,0-6.72-1.33-6.72-7.13&#xA;&#x9;&#x9;&#x9;&#x9;c0-4.91,3.67-6.65,6.69-6.65c1.49,0,3,0.39,4.29,1.42l-1.33,1.61c-0.94-0.62-1.97-0.78-2.98-0.78c-2.04,0-4.33,0.8-4.33,4.47&#xA;&#x9;&#x9;&#x9;&#x9;c0,4.22,2.68,4.81,4.33,4.81c0.85,0,1.56-0.09,2.45-0.62v-2.25h-1.97v-2.2H-3740.85z"></path>
&#x9;&#x9;</g>
&#x9;&#x9;<g>
&#x9;&#x9;&#x9;<g>
&#x9;&#x9;&#x9;&#x9;<path class="st2" d="M-4117.6,377.52h1.53v13.24h-2.29v-7.65l-3.03,4.8h-1.84l-3.03-4.8v7.65h-2.29v-13.24h1.53l4.71,7.56&#xA;&#x9;&#x9;&#x9;&#x9;&#x9;L-4117.6,377.52z"></path>
&#x9;&#x9;&#x9;&#x9;<path class="st2" d="M-4089.57,379.67v3.63h5.43v2.15h-5.43v3.14h6.64v2.15h-8.91v-13.24h8.91v2.15H-4089.57z"></path>
&#x9;&#x9;&#x9;&#x9;<path class="st2" d="M-4054.3,390.76h-4.62v-13.24h4.35c2.85,0,6.35,1.62,6.35,6.39&#xA;&#x9;&#x9;&#x9;&#x9;&#x9;C-4048.22,389.43-4051.9,390.76-4054.3,390.76z M-4054.59,388.6c1.61,0,4.11-0.49,4.11-4.62c0-3.52-2.02-4.31-4.04-4.31h-2.13&#xA;&#x9;&#x9;&#x9;&#x9;&#x9;v8.93H-4054.59z"></path>
&#x9;&#x9;&#x9;</g>
&#x9;&#x9;&#x9;<g>
&#x9;&#x9;&#x9;&#x9;<path class="st2" d="M-3872.48,383.98c0,4.13,2.62,4.71,4.24,4.71c0.99,0,1.97-0.11,2.94-0.74l1.28,1.48&#xA;&#x9;&#x9;&#x9;&#x9;&#x9;c-1.26,1.05-2.74,1.46-4.17,1.46c-2.42,0-6.57-1.3-6.57-6.98c0-4.8,3.59-6.51,6.55-6.51c1.46,0,2.94,0.38,4.2,1.39l-1.3,1.57&#xA;&#x9;&#x9;&#x9;&#x9;&#x9;c-0.92-0.61-1.93-0.76-2.92-0.76C-3870.23,379.61-3872.48,380.39-3872.48,383.98z"></path>
&#x9;&#x9;&#x9;&#x9;<path class="st2" d="M-3841.13,383.91c0-4.8,3.46-6.51,6.35-6.51c2.89,0,6.35,1.71,6.35,6.51c0,5.68-3.93,6.98-6.35,6.98&#xA;&#x9;&#x9;&#x9;&#x9;&#x9;C-3837.21,390.89-3841.13,389.59-3841.13,383.91z M-3830.72,383.98c0-3.59-2.09-4.37-4.06-4.37s-4.06,0.79-4.06,4.37&#xA;&#x9;&#x9;&#x9;&#x9;&#x9;c0,4.13,2.47,4.71,4.06,4.71C-3833.19,388.69-3830.72,388.11-3830.72,383.98z"></path>
&#x9;&#x9;&#x9;&#x9;<path class="st2" d="M-3802.27,388.6h6.15v2.15h-8.41v-13.24h2.27V388.6z"></path>
&#x9;&#x9;&#x9;</g>
&#x9;&#x9;</g>
&#x9;</g>
</g>
<g>
&#x9;<g>
&#x9;&#x9;<g>
&#x9;&#x9;&#x9;<g>
&#x9;&#x9;&#x9;&#x9;<path class="st2" d="M1255.64,1259.16c-47.61,0-86.34-38.73-86.34-86.34c0-47.61,38.73-86.34,86.34-86.34&#xA;&#x9;&#x9;&#x9;&#x9;&#x9;c47.61,0,86.34,38.73,86.34,86.34C1341.99,1220.43,1303.25,1259.16,1255.64,1259.16z M1255.64,1095.69&#xA;&#x9;&#x9;&#x9;&#x9;&#x9;c-42.53,0-77.13,34.6-77.13,77.13c0,42.53,34.6,77.13,77.13,77.13c42.53,0,77.13-34.6,77.13-77.13&#xA;&#x9;&#x9;&#x9;&#x9;&#x9;C1332.77,1130.29,1298.17,1095.69,1255.64,1095.69z"></path>
&#x9;&#x9;&#x9;</g>
&#x9;&#x9;</g>
&#x9;&#x9;<path class="st2" d="M1297.13,1200.3l-0.05-1.2c-1.2-17.24-19.41-30.74-41.44-30.74c-16.09,0-29.51-8.45-32.11-19.58&#xA;&#x9;&#x9;&#x9;c4.19-2.28,6.93-2.8,6.93-2.8c7.89-1.62,16.29-0.76,23.64,2.42c12,5.19,25.76,5.19,37.76,0l2.55-1.1c1.73-0.75,2.8-2.51,2.67-4.4&#xA;&#x9;&#x9;&#x9;c-1.2-17.24-19.41-30.74-41.44-30.74c-22.89,0-41.51,14.6-41.51,32.55c0,0.2,0.01,0.4,0.02,0.6l0.05,1.22&#xA;&#x9;&#x9;&#x9;c1.2,17.24,19.41,30.74,41.44,30.74c16.47,0,30.15,8.86,32.28,20.37c-3.43,1.29-7.23,2-7.23,2c-7.92,1.57-16.01,0.71-23.38-2.48&#xA;&#x9;&#x9;&#x9;c-12-5.2-25.76-5.2-37.76,0l-2.68,1.16c-1.73,0.75-2.81,2.51-2.68,4.4c1.2,17.24,19.41,30.74,41.44,30.74&#xA;&#x9;&#x9;&#x9;c22.89,0,41.51-14.6,41.51-32.55C1297.15,1200.71,1297.14,1200.5,1297.13,1200.3z M1255.64,1121.08&#xA;&#x9;&#x9;&#x9;c15.95,0,29.31,8.31,32.07,19.41c-9.6,3.96-20.52,3.87-30.07-0.26c-9.15-3.96-19.16-4.99-28.97-2.98&#xA;&#x9;&#x9;&#x9;c-1.51,0.27-3.09,0.84-4.52,1.46C1227.83,1128.58,1240.54,1121.08,1255.64,1121.08z M1255.64,1224.55&#xA;&#x9;&#x9;&#x9;c-15.95,0-29.31-8.31-32.07-19.41c9.64-4.02,20.62-3.95,30.21,0.2c9.03,3.91,18.94,4.97,28.65,3.04c1.28-0.21,3.03-0.79,4.69-1.43&#xA;&#x9;&#x9;&#x9;C1283.42,1217.07,1270.73,1224.55,1255.64,1224.55z"></path>
&#x9;</g>
&#x9;<g>
&#x9;&#x9;<path class="st2" d="M1073.1,1301.37c0-0.81,0.64-1.53,1.53-1.53h35.61c0.89,0,1.53,0.73,1.53,1.53v6.62&#xA;&#x9;&#x9;&#x9;c0,0.81-0.65,1.53-1.53,1.53h-26.64v13.24h22.69c0.81,0,1.53,0.73,1.53,1.53v6.7c0,0.89-0.73,1.53-1.53,1.53h-22.69v14.13h26.64&#xA;&#x9;&#x9;&#x9;c0.89,0,1.53,0.73,1.53,1.53v6.62c0,0.81-0.65,1.53-1.53,1.53h-35.61c-0.89,0-1.53-0.73-1.53-1.53V1301.37z"></path>
&#x9;&#x9;<path class="st2" d="M1161.99,1300.24c0.08-0.65,0.56-1.21,1.45-1.21h1.29c0.65,0,1.13,0.32,1.37,0.81l17.76,38.11&#xA;&#x9;&#x9;&#x9;c0.16,0,0.16,0,0.24,0l17.76-38.11c0.24-0.48,0.65-0.81,1.37-0.81h1.29c0.89,0,1.37,0.57,1.45,1.21l9.53,54.26&#xA;&#x9;&#x9;&#x9;c0.24,1.13-0.4,1.86-1.45,1.86h-7.35c-0.73,0-1.37-0.65-1.53-1.21l-4.76-30.6c-0.08,0-0.24,0-0.24,0l-14.13,31.73&#xA;&#x9;&#x9;&#x9;c-0.16,0.48-0.65,0.89-1.37,0.89h-1.45c-0.73,0-1.13-0.4-1.37-0.89l-14.29-31.73c0,0-0.16,0-0.24,0l-4.68,30.6&#xA;&#x9;&#x9;&#x9;c-0.08,0.57-0.73,1.21-1.45,1.21h-7.27c-1.05,0-1.7-0.73-1.53-1.86L1161.99,1300.24z"></path>
&#x9;&#x9;<path class="st2" d="M1262.1,1301.37c0-0.81,0.73-1.53,1.53-1.53h7.51c0.81,0,1.53,0.73,1.53,1.53v53.45&#xA;&#x9;&#x9;&#x9;c0,0.81-0.73,1.53-1.53,1.53h-7.51c-0.81,0-1.53-0.73-1.53-1.53V1301.37z"></path>
&#x9;&#x9;<path class="st2" d="M1322.89,1301.37c0-0.81,0.64-1.53,1.53-1.53h7.43c0.81,0,1.53,0.73,1.53,1.53v45.3h26.16&#xA;&#x9;&#x9;&#x9;c0.89,0,1.53,0.73,1.53,1.53v6.62c0,0.81-0.65,1.53-1.53,1.53h-35.12c-0.89,0-1.53-0.73-1.53-1.53V1301.37z"></path>
&#x9;&#x9;<path class="st2" d="M1399.19,1301.37c0-0.81,0.65-1.53,1.53-1.53h7.43c0.81,0,1.53,0.73,1.53,1.53v45.3h26.16&#xA;&#x9;&#x9;&#x9;c0.89,0,1.53,0.73,1.53,1.53v6.62c0,0.81-0.65,1.53-1.53,1.53h-35.12c-0.89,0-1.53-0.73-1.53-1.53V1301.37z"></path>
&#x9;&#x9;<path class="st2" d="M1470.72,1354.26l25.11-54.34c0.24-0.48,0.65-0.89,1.37-0.89h0.81c0.81,0,1.13,0.4,1.37,0.89l24.87,54.34&#xA;&#x9;&#x9;&#x9;c0.48,1.05-0.16,2.1-1.37,2.1h-7.02c-1.21,0-1.78-0.48-2.34-1.61l-3.96-8.72h-24.14l-3.96,8.72c-0.32,0.81-1.05,1.61-2.34,1.61&#xA;&#x9;&#x9;&#x9;h-7.02C1470.88,1356.35,1470.23,1355.31,1470.72,1354.26z M1505.6,1337.06l-8.07-17.76h-0.24l-7.91,17.76H1505.6z"></path>
&#x9;&#x9;<g>
&#x9;&#x9;&#x9;<path class="st2" d="M984.73,1348.44l3.38-5.01c0.75-1.13,2.35-1.13,3.19-0.57c0.47,0.24,8.08,4.85,14.17,5.01&#xA;&#x9;&#x9;&#x9;&#x9;c5.22,0.14,9.19-2.49,9.67-6.22c0.52-4.08-5.16-6.94-13.05-9.69c-8.82-3.07-17.65-7.91-17.65-17.44c0-7.19,6.19-15.5,21.12-15.5&#xA;&#x9;&#x9;&#x9;&#x9;c9.57,0,16.89,4.2,18.77,5.41c0.94,0.48,1.22,1.86,0.56,2.66l-3.57,4.6c-0.75,0.97-2.16,1.61-3.28,0.97&#xA;&#x9;&#x9;&#x9;&#x9;c-0.75-0.4-7.9-4.03-13.05-4.44c-5.34-0.43-8.26,3.07-8.26,5.65c0,3.79,3.47,6.38,11.08,9.04c9.1,3.15,19.62,7.83,19.62,18.25&#xA;&#x9;&#x9;&#x9;&#x9;c0,8.32-8.35,15.99-21.59,15.99c-11.83,0-18.77-4.76-20.65-6.3C984.36,1350.14,983.89,1349.73,984.73,1348.44z"></path>
&#x9;&#x9;</g>
&#x9;</g>
&#x9;<g>
&#x9;&#x9;<path class="st2" d="M1036.49,1409.51c0,4.22,2.68,4.81,4.33,4.81c1.01,0,2.02-0.11,3-0.76l1.31,1.51&#xA;&#x9;&#x9;&#x9;c-1.28,1.08-2.8,1.49-4.27,1.49c-2.47,0-6.72-1.33-6.72-7.13c0-4.91,3.67-6.65,6.69-6.65c1.49,0,3,0.39,4.29,1.42l-1.33,1.61&#xA;&#x9;&#x9;&#x9;c-0.94-0.62-1.97-0.78-2.98-0.78C1038.78,1405.04,1036.49,1405.84,1036.49,1409.51z"></path>
&#x9;&#x9;<path class="st2" d="M1076.09,1416.43h-2.48l-1.15-3.07h-5.48l-1.15,3.07h-2.47l5-13.53h2.73L1076.09,1416.43z M1067.79,1411.21&#xA;&#x9;&#x9;&#x9;h3.87l-1.95-5.2L1067.79,1411.21z"></path>
&#x9;&#x9;<path class="st2" d="M1094.89,1402.91h9.1v2.2h-6.79v3.71h5.55v2.2h-5.55v5.41h-2.32V1402.91z"></path>
&#x9;&#x9;<path class="st2" d="M1125.68,1405.11v3.71h5.55v2.2h-5.55v3.21h6.79v2.2h-9.1v-13.53h9.1v2.2H1125.68z M1130.61,1398.23h-2.5&#xA;&#x9;&#x9;&#x9;l-1.38,3.14h2.13L1130.61,1398.23z"></path>
&#x9;&#x9;<path class="st2" d="M1178.88,1405.13c-0.92,0-2.41,0.27-2.41,1.63c0,1.74,1.54,1.79,2.41,1.79h2.34v-1.74h2.31v1.74h1.28v2.2&#xA;&#x9;&#x9;&#x9;h-1.28v1.9c0,1.44-1.17,3.92-4.7,3.92h-0.37c-3.55,0-4.97-1.77-4.97-3.78c0-1.47,0.44-2.73,2.18-3.21&#xA;&#x9;&#x9;&#x9;c-1.4-0.67-1.51-2.06-1.51-2.89c0-3.16,2.64-3.78,4.54-3.78h1.35l-0.34,2.22H1178.88z M1178.85,1414.32&#xA;&#x9;&#x9;&#x9;c0.89,0,2.36-0.27,2.36-1.93v-1.65h-3.07c-1.19,0-2.34,0.46-2.34,1.83c0,1.67,1.81,1.74,2.64,1.74H1178.85z"></path>
&#x9;&#x9;<path class="st2" d="M1227.83,1409.51c0,4.22,2.68,4.81,4.33,4.81c1.01,0,2.02-0.11,3-0.76l1.31,1.51&#xA;&#x9;&#x9;&#x9;c-1.28,1.08-2.8,1.49-4.27,1.49c-2.48,0-6.72-1.33-6.72-7.13c0-4.91,3.67-6.65,6.69-6.65c1.49,0,3,0.39,4.29,1.42l-1.33,1.61&#xA;&#x9;&#x9;&#x9;c-0.94-0.62-1.97-0.78-2.98-0.78C1230.12,1405.04,1227.83,1405.84,1227.83,1409.51z"></path>
&#x9;&#x9;<path class="st2" d="M1254.82,1409.44c0-4.91,3.53-6.65,6.49-6.65c2.96,0,6.49,1.74,6.49,6.65c0,5.8-4.01,7.13-6.49,7.13&#xA;&#x9;&#x9;&#x9;C1258.83,1416.57,1254.82,1415.24,1254.82,1409.44z M1265.45,1409.51c0-3.67-2.13-4.47-4.15-4.47c-2.02,0-4.15,0.8-4.15,4.47&#xA;&#x9;&#x9;&#x9;c0,4.22,2.52,4.81,4.15,4.81C1262.93,1414.32,1265.45,1413.73,1265.45,1409.51z"></path>
&#x9;&#x9;<path class="st2" d="M1296.02,1402.91c0.85,3.07,1.93,7.08,2.84,10.11l2.13-10.11h2.41l-2.91,13.53h-3.07l-2.7-9.35l-2.71,9.35&#xA;&#x9;&#x9;&#x9;h-3.07l-2.91-13.53h2.41l2.13,10.11c0.92-3.03,2-7.04,2.84-10.11H1296.02z"></path>
&#x9;&#x9;<path class="st2" d="M1321.63,1409.44c0-4.91,3.53-6.65,6.49-6.65c2.96,0,6.49,1.74,6.49,6.65c0,5.8-4.01,7.13-6.49,7.13&#xA;&#x9;&#x9;&#x9;S1321.63,1415.24,1321.63,1409.44z M1332.27,1409.51c0-3.67-2.13-4.47-4.15-4.47s-4.15,0.8-4.15,4.47c0,4.22,2.52,4.81,4.15,4.81&#xA;&#x9;&#x9;&#x9;S1332.27,1413.73,1332.27,1409.51z"></path>
&#x9;&#x9;<path class="st2" d="M1361.96,1411.18c0.87,0.8,1.19,1.54,1.74,3.09l0.73,2.16h-2.5l-0.78-2.41c-0.57-1.63-1.26-2.25-2.2-2.25&#xA;&#x9;&#x9;&#x9;h-2.66v4.65h-2.32v-13.53h5.94c1.93,0,4.31,1.1,4.31,4.31C1364.23,1408.39,1363.91,1410.7,1361.96,1411.18z M1359.9,1409.56&#xA;&#x9;&#x9;&#x9;c0.92,0,2-0.07,2-2.27c0-1.83-1.01-2.18-2-2.18h-3.6v4.45H1359.9z"></path>
&#x9;&#x9;<path class="st2" d="M1394.7,1416.43h-3.03l-5.85-6.44v6.44h-2.32v-13.53h2.32v6.12c1.83-2.04,4.01-4.04,5.85-6.12h3.05&#xA;&#x9;&#x9;&#x9;l-6.17,6.65L1394.7,1416.43z"></path>
&#x9;&#x9;<path class="st2" d="M1413.07,1402.91h2.34v13.53h-2.34V1402.91z"></path>
&#x9;&#x9;<path class="st2" d="M1437.46,1406.9v9.54h-2.34v-13.53h2.48l6.58,9.7v-9.7h2.34v13.53h-2.57L1437.46,1406.9z"></path>
&#x9;&#x9;<path class="st2" d="M1477.13,1409.26v5.48c-1.08,1.33-3.3,1.83-4.75,1.83c-2.48,0-6.72-1.33-6.72-7.13&#xA;&#x9;&#x9;&#x9;c0-4.91,3.67-6.65,6.69-6.65c1.49,0,3,0.39,4.29,1.42l-1.33,1.61c-0.94-0.62-1.97-0.78-2.98-0.78c-2.04,0-4.33,0.8-4.33,4.47&#xA;&#x9;&#x9;&#x9;c0,4.22,2.68,4.81,4.33,4.81c0.85,0,1.56-0.09,2.45-0.62v-2.25h-1.97v-2.2H1477.13z"></path>
&#x9;</g>
&#x9;<g>
&#x9;&#x9;<g>
&#x9;&#x9;&#x9;<path class="st2" d="M1100.38,1245.52h1.53v13.24h-2.29v-7.65l-3.03,4.8h-1.84l-3.03-4.8v7.65h-2.29v-13.24h1.53l4.71,7.56&#xA;&#x9;&#x9;&#x9;&#x9;L1100.38,1245.52z"></path>
&#x9;&#x9;&#x9;<path class="st2" d="M1128.4,1247.67v3.63h5.43v2.15h-5.43v3.14h6.64v2.15h-8.91v-13.24h8.91v2.15H1128.4z"></path>
&#x9;&#x9;&#x9;<path class="st2" d="M1163.68,1258.76h-4.62v-13.24h4.35c2.85,0,6.35,1.62,6.35,6.39&#xA;&#x9;&#x9;&#x9;&#x9;C1169.75,1257.43,1166.08,1258.76,1163.68,1258.76z M1163.38,1256.6c1.61,0,4.11-0.49,4.11-4.62c0-3.52-2.02-4.31-4.04-4.31&#xA;&#x9;&#x9;&#x9;&#x9;h-2.13v8.93H1163.38z"></path>
&#x9;&#x9;</g>
&#x9;&#x9;<g>
&#x9;&#x9;&#x9;<path class="st2" d="M1345.5,1251.98c0,4.13,2.62,4.71,4.24,4.71c0.99,0,1.97-0.11,2.94-0.74l1.28,1.48&#xA;&#x9;&#x9;&#x9;&#x9;c-1.26,1.05-2.74,1.46-4.17,1.46c-2.42,0-6.57-1.3-6.57-6.98c0-4.8,3.59-6.51,6.55-6.51c1.46,0,2.94,0.38,4.2,1.39l-1.3,1.57&#xA;&#x9;&#x9;&#x9;&#x9;c-0.92-0.61-1.93-0.76-2.92-0.76C1347.74,1247.61,1345.5,1248.39,1345.5,1251.98z"></path>
&#x9;&#x9;&#x9;<path class="st2" d="M1376.84,1251.91c0-4.8,3.45-6.51,6.35-6.51c2.89,0,6.35,1.71,6.35,6.51c0,5.68-3.93,6.98-6.35,6.98&#xA;&#x9;&#x9;&#x9;&#x9;C1380.77,1258.89,1376.84,1257.59,1376.84,1251.91z M1387.25,1251.98c0-3.59-2.09-4.37-4.06-4.37c-1.97,0-4.06,0.79-4.06,4.37&#xA;&#x9;&#x9;&#x9;&#x9;c0,4.13,2.47,4.71,4.06,4.71C1384.79,1256.69,1387.25,1256.11,1387.25,1251.98z"></path>
&#x9;&#x9;&#x9;<path class="st2" d="M1415.7,1256.6h6.15v2.15h-8.41v-13.24h2.27V1256.6z"></path>
&#x9;&#x9;</g>
&#x9;</g>
</g>
<g>
&#x9;<rect x="-5219.31" y="868" width="771.63" height="767.1"></rect>
&#x9;<g>
&#x9;&#x9;<g>
&#x9;&#x9;&#x9;<g>
&#x9;&#x9;&#x9;&#x9;<g>
&#x9;&#x9;&#x9;&#x9;&#x9;<path class="st2" d="M-4832,1259.16c-47.61,0-86.34-38.73-86.34-86.34c0-47.61,38.73-86.34,86.34-86.34&#xA;&#x9;&#x9;&#x9;&#x9;&#x9;&#x9;s86.34,38.73,86.34,86.34C-4745.65,1220.43-4784.39,1259.16-4832,1259.16z M-4832,1095.69c-42.53,0-77.13,34.6-77.13,77.13&#xA;&#x9;&#x9;&#x9;&#x9;&#x9;&#x9;c0,42.53,34.6,77.13,77.13,77.13s77.13-34.6,77.13-77.13C-4754.87,1130.29-4789.47,1095.69-4832,1095.69z"></path>
&#x9;&#x9;&#x9;&#x9;</g>
&#x9;&#x9;&#x9;</g>
&#x9;&#x9;&#x9;<path class="st2" d="M-4790.51,1200.3l-0.05-1.2c-1.2-17.24-19.41-30.74-41.44-30.74c-16.09,0-29.51-8.45-32.11-19.58&#xA;&#x9;&#x9;&#x9;&#x9;c4.19-2.28,6.93-2.8,6.93-2.8c7.89-1.62,16.29-0.76,23.64,2.42c12,5.19,25.76,5.19,37.76,0l2.55-1.1c1.73-0.75,2.8-2.51,2.67-4.4&#xA;&#x9;&#x9;&#x9;&#x9;c-1.2-17.24-19.41-30.74-41.44-30.74c-22.89,0-41.51,14.6-41.51,32.55c0,0.2,0.01,0.4,0.02,0.6l0.05,1.22&#xA;&#x9;&#x9;&#x9;&#x9;c1.2,17.24,19.41,30.74,41.44,30.74c16.47,0,30.15,8.86,32.28,20.37c-3.43,1.29-7.23,2-7.23,2c-7.93,1.57-16.01,0.71-23.38-2.48&#xA;&#x9;&#x9;&#x9;&#x9;c-12-5.2-25.76-5.2-37.76,0l-2.68,1.16c-1.73,0.75-2.81,2.51-2.68,4.4c1.2,17.24,19.41,30.74,41.44,30.74&#xA;&#x9;&#x9;&#x9;&#x9;c22.89,0,41.51-14.6,41.51-32.55C-4790.49,1200.71-4790.5,1200.5-4790.51,1200.3z M-4832,1121.08c15.95,0,29.31,8.31,32.07,19.41&#xA;&#x9;&#x9;&#x9;&#x9;c-9.6,3.96-20.52,3.87-30.07-0.26c-9.15-3.96-19.16-4.99-28.97-2.98c-1.51,0.27-3.09,0.84-4.52,1.46&#xA;&#x9;&#x9;&#x9;&#x9;C-4859.81,1128.58-4847.1,1121.08-4832,1121.08z M-4832,1224.55c-15.95,0-29.31-8.31-32.07-19.41c9.64-4.02,20.62-3.95,30.21,0.2&#xA;&#x9;&#x9;&#x9;&#x9;c9.03,3.91,18.94,4.97,28.65,3.04c1.28-0.21,3.03-0.79,4.69-1.43C-4804.22,1217.07-4816.91,1224.55-4832,1224.55z"></path>
&#x9;&#x9;</g>
&#x9;&#x9;<g>
&#x9;&#x9;&#x9;<path class="st2" d="M-5014.54,1301.37c0-0.81,0.65-1.53,1.53-1.53h35.61c0.89,0,1.53,0.73,1.53,1.53v6.62&#xA;&#x9;&#x9;&#x9;&#x9;c0,0.81-0.65,1.53-1.53,1.53h-26.64v13.24h22.69c0.81,0,1.53,0.73,1.53,1.53v6.7c0,0.89-0.73,1.53-1.53,1.53h-22.69v14.13h26.64&#xA;&#x9;&#x9;&#x9;&#x9;c0.89,0,1.53,0.73,1.53,1.53v6.62c0,0.81-0.65,1.53-1.53,1.53h-35.61c-0.89,0-1.53-0.73-1.53-1.53V1301.37z"></path>
&#x9;&#x9;&#x9;<path class="st2" d="M-4925.65,1300.24c0.08-0.65,0.56-1.21,1.45-1.21h1.29c0.65,0,1.13,0.32,1.37,0.81l17.76,38.11&#xA;&#x9;&#x9;&#x9;&#x9;c0.16,0,0.16,0,0.24,0l17.76-38.11c0.24-0.48,0.65-0.81,1.37-0.81h1.29c0.89,0,1.37,0.57,1.45,1.21l9.53,54.26&#xA;&#x9;&#x9;&#x9;&#x9;c0.24,1.13-0.4,1.86-1.45,1.86h-7.35c-0.73,0-1.37-0.65-1.53-1.21l-4.76-30.6c-0.08,0-0.24,0-0.24,0l-14.13,31.73&#xA;&#x9;&#x9;&#x9;&#x9;c-0.16,0.48-0.65,0.89-1.37,0.89h-1.45c-0.73,0-1.13-0.4-1.37-0.89l-14.29-31.73c0,0-0.16,0-0.24,0l-4.68,30.6&#xA;&#x9;&#x9;&#x9;&#x9;c-0.08,0.57-0.73,1.21-1.45,1.21h-7.27c-1.05,0-1.7-0.73-1.53-1.86L-4925.65,1300.24z"></path>
&#x9;&#x9;&#x9;<path class="st2" d="M-4825.54,1301.37c0-0.81,0.73-1.53,1.53-1.53h7.51c0.81,0,1.53,0.73,1.53,1.53v53.45&#xA;&#x9;&#x9;&#x9;&#x9;c0,0.81-0.73,1.53-1.53,1.53h-7.51c-0.81,0-1.53-0.73-1.53-1.53V1301.37z"></path>
&#x9;&#x9;&#x9;<path class="st2" d="M-4764.75,1301.37c0-0.81,0.64-1.53,1.53-1.53h7.43c0.81,0,1.53,0.73,1.53,1.53v45.3h26.16&#xA;&#x9;&#x9;&#x9;&#x9;c0.89,0,1.53,0.73,1.53,1.53v6.62c0,0.81-0.65,1.53-1.53,1.53h-35.12c-0.89,0-1.53-0.73-1.53-1.53V1301.37z"></path>
&#x9;&#x9;&#x9;<path class="st2" d="M-4688.45,1301.37c0-0.81,0.65-1.53,1.53-1.53h7.43c0.81,0,1.53,0.73,1.53,1.53v45.3h26.16&#xA;&#x9;&#x9;&#x9;&#x9;c0.89,0,1.53,0.73,1.53,1.53v6.62c0,0.81-0.65,1.53-1.53,1.53h-35.12c-0.89,0-1.53-0.73-1.53-1.53V1301.37z"></path>
&#x9;&#x9;&#x9;<path class="st2" d="M-4616.92,1354.26l25.11-54.34c0.24-0.48,0.65-0.89,1.37-0.89h0.81c0.81,0,1.13,0.4,1.37,0.89l24.87,54.34&#xA;&#x9;&#x9;&#x9;&#x9;c0.48,1.05-0.16,2.1-1.37,2.1h-7.02c-1.21,0-1.78-0.48-2.34-1.61l-3.96-8.72h-24.14l-3.96,8.72c-0.32,0.81-1.05,1.61-2.34,1.61&#xA;&#x9;&#x9;&#x9;&#x9;h-7.02C-4616.76,1356.35-4617.41,1355.31-4616.92,1354.26z M-4582.04,1337.06l-8.07-17.76h-0.24l-7.91,17.76H-4582.04z"></path>
&#x9;&#x9;&#x9;<g>
&#x9;&#x9;&#x9;&#x9;<path class="st2" d="M-5102.9,1348.44l3.38-5.01c0.75-1.13,2.35-1.13,3.19-0.57c0.47,0.24,8.08,4.85,14.17,5.01&#xA;&#x9;&#x9;&#x9;&#x9;&#x9;c5.22,0.14,9.19-2.49,9.67-6.22c0.52-4.08-5.16-6.94-13.05-9.69c-8.82-3.07-17.65-7.91-17.65-17.44c0-7.19,6.19-15.5,21.12-15.5&#xA;&#x9;&#x9;&#x9;&#x9;&#x9;c9.57,0,16.89,4.2,18.77,5.41c0.94,0.48,1.22,1.86,0.56,2.66l-3.57,4.6c-0.75,0.97-2.16,1.61-3.28,0.97&#xA;&#x9;&#x9;&#x9;&#x9;&#x9;c-0.75-0.4-7.9-4.03-13.05-4.44c-5.34-0.43-8.26,3.07-8.26,5.65c0,3.79,3.47,6.38,11.08,9.04c9.1,3.15,19.62,7.83,19.62,18.25&#xA;&#x9;&#x9;&#x9;&#x9;&#x9;c0,8.32-8.35,15.99-21.59,15.99c-11.83,0-18.77-4.76-20.65-6.3C-5103.28,1350.14-5103.75,1349.73-5102.9,1348.44z"></path>
&#x9;&#x9;&#x9;</g>
&#x9;&#x9;</g>
&#x9;&#x9;<g>
&#x9;&#x9;&#x9;<path class="st2" d="M-5051.15,1409.51c0,4.22,2.68,4.81,4.33,4.81c1.01,0,2.02-0.11,3-0.76l1.31,1.51&#xA;&#x9;&#x9;&#x9;&#x9;c-1.28,1.08-2.8,1.49-4.27,1.49c-2.47,0-6.72-1.33-6.72-7.13c0-4.91,3.67-6.65,6.69-6.65c1.49,0,3,0.39,4.29,1.42l-1.33,1.61&#xA;&#x9;&#x9;&#x9;&#x9;c-0.94-0.62-1.97-0.78-2.98-0.78C-5048.86,1405.04-5051.15,1405.84-5051.15,1409.51z"></path>
&#x9;&#x9;&#x9;<path class="st2" d="M-5011.55,1416.43h-2.48l-1.15-3.07h-5.48l-1.15,3.07h-2.47l5-13.53h2.73L-5011.55,1416.43z&#xA;&#x9;&#x9;&#x9;&#x9; M-5019.85,1411.21h3.88l-1.95-5.2L-5019.85,1411.21z"></path>
&#x9;&#x9;&#x9;<path class="st2" d="M-4992.75,1402.91h9.1v2.2h-6.79v3.71h5.55v2.2h-5.55v5.41h-2.32V1402.91z"></path>
&#x9;&#x9;&#x9;<path class="st2" d="M-4961.96,1405.11v3.71h5.55v2.2h-5.55v3.21h6.79v2.2h-9.1v-13.53h9.1v2.2H-4961.96z M-4957.03,1398.23h-2.5&#xA;&#x9;&#x9;&#x9;&#x9;l-1.38,3.14h2.13L-4957.03,1398.23z"></path>
&#x9;&#x9;&#x9;<path class="st2" d="M-4908.76,1405.13c-0.92,0-2.41,0.27-2.41,1.63c0,1.74,1.54,1.79,2.41,1.79h2.34v-1.74h2.31v1.74h1.28v2.2&#xA;&#x9;&#x9;&#x9;&#x9;h-1.28v1.9c0,1.44-1.17,3.92-4.7,3.92h-0.37c-3.55,0-4.97-1.77-4.97-3.78c0-1.47,0.44-2.73,2.18-3.21&#xA;&#x9;&#x9;&#x9;&#x9;c-1.4-0.67-1.51-2.06-1.51-2.89c0-3.16,2.64-3.78,4.54-3.78h1.35l-0.34,2.22H-4908.76z M-4908.79,1414.32&#xA;&#x9;&#x9;&#x9;&#x9;c0.89,0,2.36-0.27,2.36-1.93v-1.65h-3.07c-1.19,0-2.34,0.46-2.34,1.83c0,1.67,1.81,1.74,2.64,1.74H-4908.79z"></path>
&#x9;&#x9;&#x9;<path class="st2" d="M-4859.81,1409.51c0,4.22,2.68,4.81,4.33,4.81c1.01,0,2.02-0.11,3-0.76l1.31,1.51&#xA;&#x9;&#x9;&#x9;&#x9;c-1.28,1.08-2.8,1.49-4.26,1.49c-2.48,0-6.72-1.33-6.72-7.13c0-4.91,3.67-6.65,6.69-6.65c1.49,0,3,0.39,4.29,1.42l-1.33,1.61&#xA;&#x9;&#x9;&#x9;&#x9;c-0.94-0.62-1.97-0.78-2.98-0.78C-4857.52,1405.04-4859.81,1405.84-4859.81,1409.51z"></path>
&#x9;&#x9;&#x9;<path class="st2" d="M-4832.82,1409.44c0-4.91,3.53-6.65,6.49-6.65c2.96,0,6.49,1.74,6.49,6.65c0,5.8-4.01,7.13-6.49,7.13&#xA;&#x9;&#x9;&#x9;&#x9;C-4828.81,1416.57-4832.82,1415.24-4832.82,1409.44z M-4822.19,1409.51c0-3.67-2.13-4.47-4.15-4.47c-2.02,0-4.15,0.8-4.15,4.47&#xA;&#x9;&#x9;&#x9;&#x9;c0,4.22,2.52,4.81,4.15,4.81C-4824.71,1414.32-4822.19,1413.73-4822.19,1409.51z"></path>
&#x9;&#x9;&#x9;<path class="st2" d="M-4791.62,1402.91c0.85,3.07,1.93,7.08,2.84,10.11l2.13-10.11h2.41l-2.91,13.53h-3.07l-2.7-9.35l-2.71,9.35&#xA;&#x9;&#x9;&#x9;&#x9;h-3.07l-2.91-13.53h2.41l2.13,10.11c0.92-3.03,2-7.04,2.84-10.11H-4791.62z"></path>
&#x9;&#x9;&#x9;<path class="st2" d="M-4766.01,1409.44c0-4.91,3.53-6.65,6.49-6.65s6.49,1.74,6.49,6.65c0,5.8-4.01,7.13-6.49,7.13&#xA;&#x9;&#x9;&#x9;&#x9;S-4766.01,1415.24-4766.01,1409.44z M-4755.37,1409.51c0-3.67-2.13-4.47-4.15-4.47s-4.15,0.8-4.15,4.47&#xA;&#x9;&#x9;&#x9;&#x9;c0,4.22,2.52,4.81,4.15,4.81S-4755.37,1413.73-4755.37,1409.51z"></path>
&#x9;&#x9;&#x9;<path class="st2" d="M-4725.68,1411.18c0.87,0.8,1.19,1.54,1.74,3.09l0.73,2.16h-2.5l-0.78-2.41c-0.57-1.63-1.26-2.25-2.2-2.25&#xA;&#x9;&#x9;&#x9;&#x9;h-2.66v4.65h-2.32v-13.53h5.94c1.93,0,4.31,1.1,4.31,4.31C-4723.41,1408.39-4723.73,1410.7-4725.68,1411.18z M-4727.74,1409.56&#xA;&#x9;&#x9;&#x9;&#x9;c0.92,0,2-0.07,2-2.27c0-1.83-1.01-2.18-2-2.18h-3.6v4.45H-4727.74z"></path>
&#x9;&#x9;&#x9;<path class="st2" d="M-4692.94,1416.43h-3.03l-5.85-6.44v6.44h-2.32v-13.53h2.32v6.12c1.83-2.04,4.01-4.04,5.85-6.12h3.05&#xA;&#x9;&#x9;&#x9;&#x9;l-6.17,6.65L-4692.94,1416.43z"></path>
&#x9;&#x9;&#x9;<path class="st2" d="M-4674.57,1402.91h2.34v13.53h-2.34V1402.91z"></path>
&#x9;&#x9;&#x9;<path class="st2" d="M-4650.18,1406.9v9.54h-2.34v-13.53h2.48l6.58,9.7v-9.7h2.34v13.53h-2.57L-4650.18,1406.9z"></path>
&#x9;&#x9;&#x9;<path class="st2" d="M-4610.51,1409.26v5.48c-1.08,1.33-3.3,1.83-4.75,1.83c-2.48,0-6.72-1.33-6.72-7.13&#xA;&#x9;&#x9;&#x9;&#x9;c0-4.91,3.67-6.65,6.69-6.65c1.49,0,3,0.39,4.29,1.42l-1.33,1.61c-0.94-0.62-1.97-0.78-2.98-0.78c-2.04,0-4.33,0.8-4.33,4.47&#xA;&#x9;&#x9;&#x9;&#x9;c0,4.22,2.68,4.81,4.33,4.81c0.85,0,1.56-0.09,2.45-0.62v-2.25h-1.97v-2.2H-4610.51z"></path>
&#x9;&#x9;</g>
&#x9;&#x9;<g>
&#x9;&#x9;&#x9;<g>
&#x9;&#x9;&#x9;&#x9;<path class="st2" d="M-4987.26,1245.52h1.53v13.24h-2.29v-7.65l-3.03,4.8h-1.84l-3.03-4.8v7.65h-2.29v-13.24h1.53l4.71,7.56&#xA;&#x9;&#x9;&#x9;&#x9;&#x9;L-4987.26,1245.52z"></path>
&#x9;&#x9;&#x9;&#x9;<path class="st2" d="M-4959.24,1247.67v3.63h5.43v2.15h-5.43v3.14h6.64v2.15h-8.91v-13.24h8.91v2.15H-4959.24z"></path>
&#x9;&#x9;&#x9;&#x9;<path class="st2" d="M-4923.96,1258.76h-4.62v-13.24h4.35c2.85,0,6.35,1.62,6.35,6.39&#xA;&#x9;&#x9;&#x9;&#x9;&#x9;C-4917.88,1257.43-4921.56,1258.76-4923.96,1258.76z M-4924.26,1256.6c1.61,0,4.1-0.49,4.1-4.62c0-3.52-2.02-4.31-4.04-4.31&#xA;&#x9;&#x9;&#x9;&#x9;&#x9;h-2.13v8.93H-4924.26z"></path>
&#x9;&#x9;&#x9;</g>
&#x9;&#x9;&#x9;<g>
&#x9;&#x9;&#x9;&#x9;<path class="st2" d="M-4742.14,1251.98c0,4.13,2.62,4.71,4.24,4.71c0.99,0,1.97-0.11,2.94-0.74l1.28,1.48&#xA;&#x9;&#x9;&#x9;&#x9;&#x9;c-1.26,1.05-2.74,1.46-4.17,1.46c-2.42,0-6.57-1.3-6.57-6.98c0-4.8,3.59-6.51,6.55-6.51c1.46,0,2.94,0.38,4.2,1.39l-1.3,1.57&#xA;&#x9;&#x9;&#x9;&#x9;&#x9;c-0.92-0.61-1.93-0.76-2.92-0.76C-4739.9,1247.61-4742.14,1248.39-4742.14,1251.98z"></path>
&#x9;&#x9;&#x9;&#x9;<path class="st2" d="M-4710.8,1251.91c0-4.8,3.46-6.51,6.35-6.51s6.35,1.71,6.35,6.51c0,5.68-3.93,6.98-6.35,6.98&#xA;&#x9;&#x9;&#x9;&#x9;&#x9;S-4710.8,1257.59-4710.8,1251.91z M-4700.39,1251.98c0-3.59-2.09-4.37-4.06-4.37c-1.97,0-4.06,0.79-4.06,4.37&#xA;&#x9;&#x9;&#x9;&#x9;&#x9;c0,4.13,2.47,4.71,4.06,4.71S-4700.39,1256.11-4700.39,1251.98z"></path>
&#x9;&#x9;&#x9;&#x9;<path class="st2" d="M-4671.94,1256.6h6.15v2.15h-8.41v-13.24h2.27V1256.6z"></path>
&#x9;&#x9;&#x9;</g>
&#x9;&#x9;</g>
&#x9;</g>
</g>
<g>
&#x9;<g>
&#x9;&#x9;<g>
&#x9;&#x9;&#x9;<g>
&#x9;&#x9;&#x9;&#x9;<path d="M385.98,1259.16c-47.61,0-86.34-38.73-86.34-86.34c0-47.61,38.73-86.34,86.34-86.34s86.34,38.73,86.34,86.34&#xA;&#x9;&#x9;&#x9;&#x9;&#x9;C472.32,1220.43,433.59,1259.16,385.98,1259.16z M385.98,1095.69c-42.53,0-77.13,34.6-77.13,77.13&#xA;&#x9;&#x9;&#x9;&#x9;&#x9;c0,42.53,34.6,77.13,77.13,77.13s77.13-34.6,77.13-77.13C463.11,1130.29,428.51,1095.69,385.98,1095.69z"></path>
&#x9;&#x9;&#x9;</g>
&#x9;&#x9;</g>
&#x9;&#x9;<path d="M427.47,1200.3l-0.05-1.2c-1.2-17.24-19.41-30.74-41.44-30.74c-16.09,0-29.51-8.45-32.11-19.58&#xA;&#x9;&#x9;&#x9;c4.19-2.28,6.93-2.8,6.93-2.8c7.89-1.62,16.29-0.76,23.64,2.42c12,5.19,25.76,5.19,37.76,0l2.55-1.1c1.73-0.75,2.8-2.51,2.67-4.4&#xA;&#x9;&#x9;&#x9;c-1.2-17.24-19.41-30.74-41.44-30.74c-22.89,0-41.51,14.6-41.51,32.55c0,0.2,0.01,0.4,0.02,0.6l0.05,1.22&#xA;&#x9;&#x9;&#x9;c1.2,17.24,19.41,30.74,41.44,30.74c16.47,0,30.15,8.86,32.28,20.37c-3.43,1.29-7.23,2-7.23,2c-7.92,1.57-16.01,0.71-23.38-2.48&#xA;&#x9;&#x9;&#x9;c-12-5.2-25.76-5.2-37.76,0l-2.68,1.16c-1.73,0.75-2.81,2.51-2.68,4.4c1.2,17.24,19.41,30.74,41.44,30.74&#xA;&#x9;&#x9;&#x9;c22.89,0,41.51-14.6,41.51-32.55C427.49,1200.71,427.48,1200.5,427.47,1200.3z M385.98,1121.08c15.95,0,29.31,8.31,32.07,19.41&#xA;&#x9;&#x9;&#x9;c-9.6,3.96-20.52,3.87-30.07-0.26c-9.15-3.96-19.16-4.99-28.97-2.98c-1.51,0.27-3.09,0.84-4.52,1.46&#xA;&#x9;&#x9;&#x9;C358.17,1128.58,370.87,1121.08,385.98,1121.08z M385.98,1224.55c-15.95,0-29.31-8.31-32.07-19.41c9.64-4.02,20.62-3.95,30.21,0.2&#xA;&#x9;&#x9;&#x9;c9.03,3.91,18.94,4.97,28.65,3.04c1.28-0.21,3.03-0.79,4.69-1.43C413.76,1217.07,401.07,1224.55,385.98,1224.55z"></path>
&#x9;</g>
&#x9;<g>
&#x9;&#x9;<path d="M203.43,1301.37c0-0.81,0.64-1.53,1.53-1.53h35.61c0.89,0,1.53,0.73,1.53,1.53v6.62c0,0.81-0.65,1.53-1.53,1.53h-26.64&#xA;&#x9;&#x9;&#x9;v13.24h22.69c0.81,0,1.53,0.73,1.53,1.53v6.7c0,0.89-0.73,1.53-1.53,1.53h-22.69v14.13h26.64c0.89,0,1.53,0.73,1.53,1.53v6.62&#xA;&#x9;&#x9;&#x9;c0,0.81-0.65,1.53-1.53,1.53h-35.61c-0.89,0-1.53-0.73-1.53-1.53V1301.37z"></path>
&#x9;&#x9;<path d="M292.32,1300.24c0.08-0.65,0.56-1.21,1.45-1.21h1.29c0.65,0,1.13,0.32,1.37,0.81l17.76,38.11c0.16,0,0.16,0,0.24,0&#xA;&#x9;&#x9;&#x9;l17.76-38.11c0.24-0.48,0.65-0.81,1.37-0.81h1.29c0.89,0,1.37,0.57,1.45,1.21l9.53,54.26c0.24,1.13-0.4,1.86-1.45,1.86h-7.35&#xA;&#x9;&#x9;&#x9;c-0.73,0-1.37-0.65-1.53-1.21l-4.76-30.6c-0.08,0-0.24,0-0.24,0l-14.13,31.73c-0.16,0.48-0.65,0.89-1.37,0.89h-1.45&#xA;&#x9;&#x9;&#x9;c-0.73,0-1.13-0.4-1.37-0.89l-14.29-31.73c0,0-0.16,0-0.24,0l-4.68,30.6c-0.08,0.57-0.73,1.21-1.45,1.21h-7.27&#xA;&#x9;&#x9;&#x9;c-1.05,0-1.7-0.73-1.53-1.86L292.32,1300.24z"></path>
&#x9;&#x9;<path d="M392.44,1301.37c0-0.81,0.73-1.53,1.53-1.53h7.51c0.81,0,1.53,0.73,1.53,1.53v53.45c0,0.81-0.73,1.53-1.53,1.53h-7.51&#xA;&#x9;&#x9;&#x9;c-0.81,0-1.53-0.73-1.53-1.53V1301.37z"></path>
&#x9;&#x9;<path d="M453.23,1301.37c0-0.81,0.64-1.53,1.53-1.53h7.43c0.81,0,1.53,0.73,1.53,1.53v45.3h26.16c0.89,0,1.53,0.73,1.53,1.53v6.62&#xA;&#x9;&#x9;&#x9;c0,0.81-0.65,1.53-1.53,1.53h-35.12c-0.89,0-1.53-0.73-1.53-1.53V1301.37z"></path>
&#x9;&#x9;<path d="M529.52,1301.37c0-0.81,0.64-1.53,1.53-1.53h7.43c0.81,0,1.53,0.73,1.53,1.53v45.3h26.16c0.89,0,1.53,0.73,1.53,1.53v6.62&#xA;&#x9;&#x9;&#x9;c0,0.81-0.65,1.53-1.53,1.53h-35.12c-0.89,0-1.53-0.73-1.53-1.53V1301.37z"></path>
&#x9;&#x9;<path d="M601.06,1354.26l25.11-54.34c0.24-0.48,0.65-0.89,1.37-0.89h0.81c0.81,0,1.13,0.4,1.37,0.89l24.87,54.34&#xA;&#x9;&#x9;&#x9;c0.48,1.05-0.16,2.1-1.37,2.1h-7.02c-1.21,0-1.78-0.48-2.34-1.61l-3.96-8.72h-24.14l-3.96,8.72c-0.32,0.81-1.05,1.61-2.34,1.61&#xA;&#x9;&#x9;&#x9;h-7.02C601.22,1356.35,600.57,1355.31,601.06,1354.26z M635.94,1337.06l-8.07-17.76h-0.24l-7.91,17.76H635.94z"></path>
&#x9;&#x9;<g>
&#x9;&#x9;&#x9;<path d="M115.07,1348.44l3.38-5.01c0.75-1.13,2.35-1.13,3.19-0.57c0.47,0.24,8.08,4.85,14.17,5.01c5.22,0.14,9.19-2.49,9.67-6.22&#xA;&#x9;&#x9;&#x9;&#x9;c0.52-4.08-5.16-6.94-13.05-9.69c-8.82-3.07-17.65-7.91-17.65-17.44c0-7.19,6.19-15.5,21.12-15.5c9.57,0,16.89,4.2,18.77,5.41&#xA;&#x9;&#x9;&#x9;&#x9;c0.94,0.48,1.22,1.86,0.56,2.66l-3.57,4.6c-0.75,0.97-2.16,1.61-3.28,0.97c-0.75-0.4-7.9-4.03-13.05-4.44&#xA;&#x9;&#x9;&#x9;&#x9;c-5.34-0.43-8.26,3.07-8.26,5.65c0,3.79,3.47,6.38,11.08,9.04c9.1,3.15,19.62,7.83,19.62,18.25c0,8.32-8.35,15.99-21.59,15.99&#xA;&#x9;&#x9;&#x9;&#x9;c-11.83,0-18.77-4.76-20.65-6.3C114.7,1350.14,114.23,1349.73,115.07,1348.44z"></path>
&#x9;&#x9;</g>
&#x9;</g>
&#x9;<g>
&#x9;&#x9;<path d="M166.83,1409.51c0,4.22,2.68,4.81,4.33,4.81c1.01,0,2.02-0.11,3-0.76l1.31,1.51c-1.28,1.08-2.8,1.49-4.26,1.49&#xA;&#x9;&#x9;&#x9;c-2.47,0-6.72-1.33-6.72-7.13c0-4.91,3.67-6.65,6.69-6.65c1.49,0,3,0.39,4.29,1.42l-1.33,1.61c-0.94-0.62-1.97-0.78-2.98-0.78&#xA;&#x9;&#x9;&#x9;C169.12,1405.04,166.83,1405.84,166.83,1409.51z"></path>
&#x9;&#x9;<path d="M206.42,1416.43h-2.48l-1.15-3.07h-5.48l-1.15,3.07h-2.47l5-13.53h2.73L206.42,1416.43z M198.13,1411.21H202l-1.95-5.2&#xA;&#x9;&#x9;&#x9;L198.13,1411.21z"></path>
&#x9;&#x9;<path d="M225.23,1402.91h9.1v2.2h-6.79v3.71h5.55v2.2h-5.55v5.41h-2.32V1402.91z"></path>
&#x9;&#x9;<path d="M256.02,1405.11v3.71h5.55v2.2h-5.55v3.21h6.79v2.2h-9.1v-13.53h9.1v2.2H256.02z M260.95,1398.23h-2.5l-1.38,3.14h2.13&#xA;&#x9;&#x9;&#x9;L260.95,1398.23z"></path>
&#x9;&#x9;<path d="M309.21,1405.13c-0.92,0-2.41,0.27-2.41,1.63c0,1.74,1.54,1.79,2.41,1.79h2.34v-1.74h2.31v1.74h1.28v2.2h-1.28v1.9&#xA;&#x9;&#x9;&#x9;c0,1.44-1.17,3.92-4.7,3.92h-0.37c-3.55,0-4.97-1.77-4.97-3.78c0-1.47,0.44-2.73,2.18-3.21c-1.4-0.67-1.51-2.06-1.51-2.89&#xA;&#x9;&#x9;&#x9;c0-3.16,2.64-3.78,4.54-3.78h1.35l-0.34,2.22H309.21z M309.19,1414.32c0.89,0,2.36-0.27,2.36-1.93v-1.65h-3.07&#xA;&#x9;&#x9;&#x9;c-1.19,0-2.34,0.46-2.34,1.83c0,1.67,1.81,1.74,2.64,1.74H309.19z"></path>
&#x9;&#x9;<path d="M358.17,1409.51c0,4.22,2.68,4.81,4.33,4.81c1.01,0,2.02-0.11,3-0.76l1.31,1.51c-1.28,1.08-2.8,1.49-4.26,1.49&#xA;&#x9;&#x9;&#x9;c-2.48,0-6.72-1.33-6.72-7.13c0-4.91,3.67-6.65,6.69-6.65c1.49,0,3,0.39,4.29,1.42l-1.33,1.61c-0.94-0.62-1.97-0.78-2.98-0.78&#xA;&#x9;&#x9;&#x9;C360.46,1405.04,358.17,1405.84,358.17,1409.51z"></path>
&#x9;&#x9;<path d="M385.15,1409.44c0-4.91,3.53-6.65,6.49-6.65c2.96,0,6.49,1.74,6.49,6.65c0,5.8-4.01,7.13-6.49,7.13&#xA;&#x9;&#x9;&#x9;C389.17,1416.57,385.15,1415.24,385.15,1409.44z M395.79,1409.51c0-3.67-2.13-4.47-4.15-4.47c-2.02,0-4.15,0.8-4.15,4.47&#xA;&#x9;&#x9;&#x9;c0,4.22,2.52,4.81,4.15,4.81C393.27,1414.32,395.79,1413.73,395.79,1409.51z"></path>
&#x9;&#x9;<path d="M426.35,1402.91c0.85,3.07,1.93,7.08,2.84,10.11l2.13-10.11h2.41l-2.91,13.53h-3.07l-2.7-9.35l-2.71,9.35h-3.07&#xA;&#x9;&#x9;&#x9;l-2.91-13.53h2.41l2.13,10.11c0.92-3.03,2-7.04,2.84-10.11H426.35z"></path>
&#x9;&#x9;<path d="M451.97,1409.44c0-4.91,3.53-6.65,6.49-6.65s6.49,1.74,6.49,6.65c0,5.8-4.01,7.13-6.49,7.13&#xA;&#x9;&#x9;&#x9;S451.97,1415.24,451.97,1409.44z M462.6,1409.51c0-3.67-2.13-4.47-4.15-4.47c-2.02,0-4.15,0.8-4.15,4.47&#xA;&#x9;&#x9;&#x9;c0,4.22,2.52,4.81,4.15,4.81S462.6,1413.73,462.6,1409.51z"></path>
&#x9;&#x9;<path d="M492.3,1411.18c0.87,0.8,1.19,1.54,1.74,3.09l0.73,2.16h-2.5l-0.78-2.41c-0.57-1.63-1.26-2.25-2.2-2.25h-2.66v4.65h-2.32&#xA;&#x9;&#x9;&#x9;v-13.53h5.94c1.93,0,4.31,1.1,4.31,4.31C494.57,1408.39,494.25,1410.7,492.3,1411.18z M490.23,1409.56c0.92,0,2-0.07,2-2.27&#xA;&#x9;&#x9;&#x9;c0-1.83-1.01-2.18-2-2.18h-3.6v4.45H490.23z"></path>
&#x9;&#x9;<path d="M525.04,1416.43h-3.03l-5.85-6.44v6.44h-2.32v-13.53h2.32v6.12c1.83-2.04,4.01-4.04,5.85-6.12h3.05l-6.17,6.65&#xA;&#x9;&#x9;&#x9;L525.04,1416.43z"></path>
&#x9;&#x9;<path d="M543.41,1402.91h2.34v13.53h-2.34V1402.91z"></path>
&#x9;&#x9;<path d="M567.8,1406.9v9.54h-2.34v-13.53h2.48l6.58,9.7v-9.7h2.34v13.53h-2.57L567.8,1406.9z"></path>
&#x9;&#x9;<path d="M607.47,1409.26v5.48c-1.08,1.33-3.3,1.83-4.75,1.83c-2.48,0-6.72-1.33-6.72-7.13c0-4.91,3.67-6.65,6.69-6.65&#xA;&#x9;&#x9;&#x9;c1.49,0,3,0.39,4.29,1.42l-1.33,1.61c-0.94-0.62-1.97-0.78-2.98-0.78c-2.04,0-4.33,0.8-4.33,4.47c0,4.22,2.68,4.81,4.33,4.81&#xA;&#x9;&#x9;&#x9;c0.85,0,1.56-0.09,2.45-0.62v-2.25h-1.97v-2.2H607.47z"></path>
&#x9;</g>
&#x9;<g>
&#x9;&#x9;<g>
&#x9;&#x9;&#x9;<path d="M230.72,1245.52h1.53v13.24h-2.29v-7.65l-3.03,4.8h-1.84l-3.03-4.8v7.65h-2.29v-13.24h1.53l4.71,7.56L230.72,1245.52z"></path>
&#x9;&#x9;&#x9;<path d="M258.74,1247.67v3.63h5.43v2.15h-5.43v3.14h6.64v2.15h-8.91v-13.24h8.91v2.15H258.74z"></path>
&#x9;&#x9;&#x9;<path d="M294.01,1258.76h-4.62v-13.24h4.35c2.85,0,6.35,1.62,6.35,6.39C300.09,1257.43,296.41,1258.76,294.01,1258.76z&#xA;&#x9;&#x9;&#x9;&#x9; M293.72,1256.6c1.61,0,4.11-0.49,4.11-4.62c0-3.52-2.02-4.31-4.04-4.31h-2.13v8.93H293.72z"></path>
&#x9;&#x9;</g>
&#x9;&#x9;<g>
&#x9;&#x9;&#x9;<path d="M475.84,1251.98c0,4.13,2.62,4.71,4.24,4.71c0.99,0,1.97-0.11,2.94-0.74l1.28,1.48c-1.26,1.05-2.74,1.46-4.17,1.46&#xA;&#x9;&#x9;&#x9;&#x9;c-2.42,0-6.57-1.3-6.57-6.98c0-4.8,3.59-6.51,6.55-6.51c1.46,0,2.94,0.38,4.2,1.39l-1.3,1.57c-0.92-0.61-1.93-0.76-2.92-0.76&#xA;&#x9;&#x9;&#x9;&#x9;C478.08,1247.61,475.84,1248.39,475.84,1251.98z"></path>
&#x9;&#x9;&#x9;<path d="M507.18,1251.91c0-4.8,3.45-6.51,6.35-6.51c2.89,0,6.35,1.71,6.35,6.51c0,5.68-3.93,6.98-6.35,6.98&#xA;&#x9;&#x9;&#x9;&#x9;C511.11,1258.89,507.18,1257.59,507.18,1251.91z M517.59,1251.98c0-3.59-2.09-4.37-4.06-4.37c-1.97,0-4.06,0.79-4.06,4.37&#xA;&#x9;&#x9;&#x9;&#x9;c0,4.13,2.47,4.71,4.06,4.71C515.12,1256.69,517.59,1256.11,517.59,1251.98z"></path>
&#x9;&#x9;&#x9;<path d="M546.04,1256.6h6.15v2.15h-8.41v-13.24h2.27V1256.6z"></path>
&#x9;&#x9;</g>
&#x9;</g>
</g>
<g>
&#x9;<rect x="-5218.98" y="-2.75" class="st2" width="771.81" height="768.75"></rect>
&#x9;<g>
&#x9;&#x9;<g>
&#x9;&#x9;&#x9;<g>
&#x9;&#x9;&#x9;&#x9;<g>
&#x9;&#x9;&#x9;&#x9;&#x9;<path d="M-4832,391.16c-47.61,0-86.34-38.73-86.34-86.34c0-47.61,38.73-86.34,86.34-86.34s86.34,38.73,86.34,86.34&#xA;&#x9;&#x9;&#x9;&#x9;&#x9;&#x9;C-4745.65,352.43-4784.39,391.16-4832,391.16z M-4832,227.69c-42.53,0-77.13,34.6-77.13,77.13c0,42.53,34.6,77.13,77.13,77.13&#xA;&#x9;&#x9;&#x9;&#x9;&#x9;&#x9;s77.13-34.6,77.13-77.13C-4754.87,262.29-4789.47,227.69-4832,227.69z"></path>
&#x9;&#x9;&#x9;&#x9;</g>
&#x9;&#x9;&#x9;</g>
&#x9;&#x9;&#x9;<path d="M-4790.51,332.3l-0.05-1.2c-1.2-17.24-19.41-30.74-41.44-30.74c-16.09,0-29.51-8.45-32.11-19.58&#xA;&#x9;&#x9;&#x9;&#x9;c4.19-2.28,6.93-2.8,6.93-2.8c7.89-1.62,16.29-0.76,23.64,2.42c12,5.19,25.76,5.19,37.76,0l2.55-1.1c1.73-0.75,2.8-2.51,2.67-4.4&#xA;&#x9;&#x9;&#x9;&#x9;c-1.2-17.24-19.41-30.74-41.44-30.74c-22.89,0-41.51,14.6-41.51,32.55c0,0.2,0.01,0.4,0.02,0.6l0.05,1.22&#xA;&#x9;&#x9;&#x9;&#x9;c1.2,17.24,19.41,30.74,41.44,30.74c16.47,0,30.15,8.86,32.28,20.37c-3.43,1.29-7.23,2-7.23,2c-7.93,1.57-16.01,0.71-23.38-2.48&#xA;&#x9;&#x9;&#x9;&#x9;c-12-5.2-25.76-5.2-37.76,0l-2.68,1.16c-1.73,0.75-2.81,2.51-2.68,4.4c1.2,17.24,19.41,30.74,41.44,30.74&#xA;&#x9;&#x9;&#x9;&#x9;c22.89,0,41.51-14.6,41.51-32.55C-4790.49,332.71-4790.5,332.5-4790.51,332.3z M-4832,253.08c15.95,0,29.31,8.31,32.07,19.41&#xA;&#x9;&#x9;&#x9;&#x9;c-9.6,3.96-20.52,3.87-30.07-0.26c-9.15-3.96-19.16-4.99-28.97-2.98c-1.51,0.27-3.09,0.84-4.52,1.46&#xA;&#x9;&#x9;&#x9;&#x9;C-4859.81,260.58-4847.1,253.08-4832,253.08z M-4832,356.55c-15.95,0-29.31-8.31-32.07-19.41c9.64-4.02,20.62-3.95,30.21,0.2&#xA;&#x9;&#x9;&#x9;&#x9;c9.03,3.91,18.94,4.97,28.65,3.04c1.28-0.21,3.03-0.79,4.69-1.43C-4804.22,349.07-4816.91,356.55-4832,356.55z"></path>
&#x9;&#x9;</g>
&#x9;&#x9;<g>
&#x9;&#x9;&#x9;<path d="M-5014.54,433.37c0-0.81,0.65-1.53,1.53-1.53h35.61c0.89,0,1.53,0.73,1.53,1.53v6.62c0,0.81-0.65,1.53-1.53,1.53h-26.64&#xA;&#x9;&#x9;&#x9;&#x9;v13.24h22.69c0.81,0,1.53,0.73,1.53,1.53v6.7c0,0.89-0.73,1.53-1.53,1.53h-22.69v14.13h26.64c0.89,0,1.53,0.73,1.53,1.53v6.62&#xA;&#x9;&#x9;&#x9;&#x9;c0,0.81-0.65,1.53-1.53,1.53h-35.61c-0.89,0-1.53-0.73-1.53-1.53V433.37z"></path>
&#x9;&#x9;&#x9;<path d="M-4925.65,432.24c0.08-0.65,0.56-1.21,1.45-1.21h1.29c0.65,0,1.13,0.32,1.37,0.81l17.76,38.11c0.16,0,0.16,0,0.24,0&#xA;&#x9;&#x9;&#x9;&#x9;l17.76-38.11c0.24-0.48,0.65-0.81,1.37-0.81h1.29c0.89,0,1.37,0.57,1.45,1.21l9.53,54.26c0.24,1.13-0.4,1.86-1.45,1.86h-7.35&#xA;&#x9;&#x9;&#x9;&#x9;c-0.73,0-1.37-0.65-1.53-1.21l-4.76-30.6c-0.08,0-0.24,0-0.24,0l-14.13,31.73c-0.16,0.48-0.65,0.89-1.37,0.89h-1.45&#xA;&#x9;&#x9;&#x9;&#x9;c-0.73,0-1.13-0.4-1.37-0.89l-14.29-31.73c0,0-0.16,0-0.24,0l-4.68,30.6c-0.08,0.57-0.73,1.21-1.45,1.21h-7.27&#xA;&#x9;&#x9;&#x9;&#x9;c-1.05,0-1.7-0.73-1.53-1.86L-4925.65,432.24z"></path>
&#x9;&#x9;&#x9;<path d="M-4825.54,433.37c0-0.81,0.73-1.53,1.53-1.53h7.51c0.81,0,1.53,0.73,1.53,1.53v53.45c0,0.81-0.73,1.53-1.53,1.53h-7.51&#xA;&#x9;&#x9;&#x9;&#x9;c-0.81,0-1.53-0.73-1.53-1.53V433.37z"></path>
&#x9;&#x9;&#x9;<path d="M-4764.75,433.37c0-0.81,0.64-1.53,1.53-1.53h7.43c0.81,0,1.53,0.73,1.53,1.53v45.3h26.16c0.89,0,1.53,0.73,1.53,1.53&#xA;&#x9;&#x9;&#x9;&#x9;v6.62c0,0.81-0.65,1.53-1.53,1.53h-35.12c-0.89,0-1.53-0.73-1.53-1.53V433.37z"></path>
&#x9;&#x9;&#x9;<path d="M-4688.45,433.37c0-0.81,0.65-1.53,1.53-1.53h7.43c0.81,0,1.53,0.73,1.53,1.53v45.3h26.16c0.89,0,1.53,0.73,1.53,1.53&#xA;&#x9;&#x9;&#x9;&#x9;v6.62c0,0.81-0.65,1.53-1.53,1.53h-35.12c-0.89,0-1.53-0.73-1.53-1.53V433.37z"></path>
&#x9;&#x9;&#x9;<path d="M-4616.92,486.26l25.11-54.34c0.24-0.48,0.65-0.89,1.37-0.89h0.81c0.81,0,1.13,0.4,1.37,0.89l24.87,54.34&#xA;&#x9;&#x9;&#x9;&#x9;c0.48,1.05-0.16,2.1-1.37,2.1h-7.02c-1.21,0-1.78-0.48-2.34-1.61l-3.96-8.72h-24.14l-3.96,8.72c-0.32,0.81-1.05,1.61-2.34,1.61&#xA;&#x9;&#x9;&#x9;&#x9;h-7.02C-4616.76,488.35-4617.41,487.31-4616.92,486.26z M-4582.04,469.06l-8.07-17.76h-0.24l-7.91,17.76H-4582.04z"></path>
&#x9;&#x9;&#x9;<g>
&#x9;&#x9;&#x9;&#x9;<path d="M-5102.9,480.44l3.38-5.01c0.75-1.13,2.35-1.13,3.19-0.57c0.47,0.24,8.08,4.85,14.17,5.01&#xA;&#x9;&#x9;&#x9;&#x9;&#x9;c5.22,0.14,9.19-2.49,9.67-6.22c0.52-4.08-5.16-6.94-13.05-9.69c-8.82-3.07-17.65-7.91-17.65-17.44c0-7.19,6.19-15.5,21.12-15.5&#xA;&#x9;&#x9;&#x9;&#x9;&#x9;c9.57,0,16.89,4.2,18.77,5.41c0.94,0.48,1.22,1.86,0.56,2.66l-3.57,4.6c-0.75,0.97-2.16,1.61-3.28,0.97&#xA;&#x9;&#x9;&#x9;&#x9;&#x9;c-0.75-0.4-7.9-4.03-13.05-4.44c-5.34-0.43-8.26,3.07-8.26,5.65c0,3.79,3.47,6.38,11.08,9.04c9.1,3.15,19.62,7.83,19.62,18.25&#xA;&#x9;&#x9;&#x9;&#x9;&#x9;c0,8.32-8.35,15.99-21.59,15.99c-11.83,0-18.77-4.76-20.65-6.3C-5103.28,482.14-5103.75,481.73-5102.9,480.44z"></path>
&#x9;&#x9;&#x9;</g>
&#x9;&#x9;</g>
&#x9;&#x9;<g>
&#x9;&#x9;&#x9;<path d="M-5051.15,541.51c0,4.22,2.68,4.81,4.33,4.81c1.01,0,2.02-0.11,3-0.76l1.31,1.51c-1.28,1.08-2.8,1.49-4.27,1.49&#xA;&#x9;&#x9;&#x9;&#x9;c-2.47,0-6.72-1.33-6.72-7.13c0-4.91,3.67-6.65,6.69-6.65c1.49,0,3,0.39,4.29,1.42l-1.33,1.61c-0.94-0.62-1.97-0.78-2.98-0.78&#xA;&#x9;&#x9;&#x9;&#x9;C-5048.86,537.04-5051.15,537.84-5051.15,541.51z"></path>
&#x9;&#x9;&#x9;<path d="M-5011.55,548.43h-2.48l-1.15-3.07h-5.48l-1.15,3.07h-2.47l5-13.53h2.73L-5011.55,548.43z M-5019.85,543.21h3.88&#xA;&#x9;&#x9;&#x9;&#x9;l-1.95-5.2L-5019.85,543.21z"></path>
&#x9;&#x9;&#x9;<path d="M-4992.75,534.91h9.1v2.2h-6.79v3.71h5.55v2.2h-5.55v5.41h-2.32V534.91z"></path>
&#x9;&#x9;&#x9;<path d="M-4961.96,537.11v3.71h5.55v2.2h-5.55v3.21h6.79v2.2h-9.1v-13.53h9.1v2.2H-4961.96z M-4957.03,530.23h-2.5l-1.38,3.14&#xA;&#x9;&#x9;&#x9;&#x9;h2.13L-4957.03,530.23z"></path>
&#x9;&#x9;&#x9;<path d="M-4908.76,537.13c-0.92,0-2.41,0.27-2.41,1.63c0,1.74,1.54,1.79,2.41,1.79h2.34v-1.74h2.31v1.74h1.28v2.2h-1.28v1.9&#xA;&#x9;&#x9;&#x9;&#x9;c0,1.44-1.17,3.92-4.7,3.92h-0.37c-3.55,0-4.97-1.77-4.97-3.78c0-1.47,0.44-2.73,2.18-3.21c-1.4-0.67-1.51-2.06-1.51-2.89&#xA;&#x9;&#x9;&#x9;&#x9;c0-3.16,2.64-3.78,4.54-3.78h1.35l-0.34,2.22H-4908.76z M-4908.79,546.32c0.89,0,2.36-0.27,2.36-1.93v-1.65h-3.07&#xA;&#x9;&#x9;&#x9;&#x9;c-1.19,0-2.34,0.46-2.34,1.83c0,1.67,1.81,1.74,2.64,1.74H-4908.79z"></path>
&#x9;&#x9;&#x9;<path d="M-4859.81,541.51c0,4.22,2.68,4.81,4.33,4.81c1.01,0,2.02-0.11,3-0.76l1.31,1.51c-1.28,1.08-2.8,1.49-4.26,1.49&#xA;&#x9;&#x9;&#x9;&#x9;c-2.48,0-6.72-1.33-6.72-7.13c0-4.91,3.67-6.65,6.69-6.65c1.49,0,3,0.39,4.29,1.42l-1.33,1.61c-0.94-0.62-1.97-0.78-2.98-0.78&#xA;&#x9;&#x9;&#x9;&#x9;C-4857.52,537.04-4859.81,537.84-4859.81,541.51z"></path>
&#x9;&#x9;&#x9;<path d="M-4832.82,541.44c0-4.91,3.53-6.65,6.49-6.65c2.96,0,6.49,1.74,6.49,6.65c0,5.8-4.01,7.13-6.49,7.13&#xA;&#x9;&#x9;&#x9;&#x9;C-4828.81,548.57-4832.82,547.24-4832.82,541.44z M-4822.19,541.51c0-3.67-2.13-4.47-4.15-4.47c-2.02,0-4.15,0.8-4.15,4.47&#xA;&#x9;&#x9;&#x9;&#x9;c0,4.22,2.52,4.81,4.15,4.81C-4824.71,546.32-4822.19,545.73-4822.19,541.51z"></path>
&#x9;&#x9;&#x9;<path d="M-4791.62,534.91c0.85,3.07,1.93,7.08,2.84,10.11l2.13-10.11h2.41l-2.91,13.53h-3.07l-2.7-9.35l-2.71,9.35h-3.07&#xA;&#x9;&#x9;&#x9;&#x9;l-2.91-13.53h2.41l2.13,10.11c0.92-3.03,2-7.04,2.84-10.11H-4791.62z"></path>
&#x9;&#x9;&#x9;<path d="M-4766.01,541.44c0-4.91,3.53-6.65,6.49-6.65s6.49,1.74,6.49,6.65c0,5.8-4.01,7.13-6.49,7.13&#xA;&#x9;&#x9;&#x9;&#x9;S-4766.01,547.24-4766.01,541.44z M-4755.37,541.51c0-3.67-2.13-4.47-4.15-4.47s-4.15,0.8-4.15,4.47c0,4.22,2.52,4.81,4.15,4.81&#xA;&#x9;&#x9;&#x9;&#x9;S-4755.37,545.73-4755.37,541.51z"></path>
&#x9;&#x9;&#x9;<path d="M-4725.68,543.18c0.87,0.8,1.19,1.54,1.74,3.09l0.73,2.16h-2.5l-0.78-2.41c-0.57-1.63-1.26-2.25-2.2-2.25h-2.66v4.65&#xA;&#x9;&#x9;&#x9;&#x9;h-2.32v-13.53h5.94c1.93,0,4.31,1.1,4.31,4.31C-4723.41,540.39-4723.73,542.7-4725.68,543.18z M-4727.74,541.56&#xA;&#x9;&#x9;&#x9;&#x9;c0.92,0,2-0.07,2-2.27c0-1.83-1.01-2.18-2-2.18h-3.6v4.45H-4727.74z"></path>
&#x9;&#x9;&#x9;<path d="M-4692.94,548.43h-3.03l-5.85-6.44v6.44h-2.32v-13.53h2.32v6.12c1.83-2.04,4.01-4.04,5.85-6.12h3.05l-6.17,6.65&#xA;&#x9;&#x9;&#x9;&#x9;L-4692.94,548.43z"></path>
&#x9;&#x9;&#x9;<path d="M-4674.57,534.91h2.34v13.53h-2.34V534.91z"></path>
&#x9;&#x9;&#x9;<path d="M-4650.18,538.9v9.54h-2.34v-13.53h2.48l6.58,9.7v-9.7h2.34v13.53h-2.57L-4650.18,538.9z"></path>
&#x9;&#x9;&#x9;<path d="M-4610.51,541.26v5.48c-1.08,1.33-3.3,1.84-4.75,1.84c-2.48,0-6.72-1.33-6.72-7.13c0-4.91,3.67-6.65,6.69-6.65&#xA;&#x9;&#x9;&#x9;&#x9;c1.49,0,3,0.39,4.29,1.42l-1.33,1.61c-0.94-0.62-1.97-0.78-2.98-0.78c-2.04,0-4.33,0.8-4.33,4.47c0,4.22,2.68,4.81,4.33,4.81&#xA;&#x9;&#x9;&#x9;&#x9;c0.85,0,1.56-0.09,2.45-0.62v-2.25h-1.97v-2.2H-4610.51z"></path>
&#x9;&#x9;</g>
&#x9;&#x9;<g>
&#x9;&#x9;&#x9;<g>
&#x9;&#x9;&#x9;&#x9;<path d="M-4987.26,377.52h1.53v13.24h-2.29v-7.65l-3.03,4.8h-1.84l-3.03-4.8v7.65h-2.29v-13.24h1.53l4.71,7.56L-4987.26,377.52z&#xA;&#x9;&#x9;&#x9;&#x9;&#x9;"></path>
&#x9;&#x9;&#x9;&#x9;<path d="M-4959.24,379.67v3.63h5.43v2.15h-5.43v3.14h6.64v2.15h-8.91v-13.24h8.91v2.15H-4959.24z"></path>
&#x9;&#x9;&#x9;&#x9;<path d="M-4923.96,390.76h-4.62v-13.24h4.35c2.85,0,6.35,1.62,6.35,6.39C-4917.88,389.43-4921.56,390.76-4923.96,390.76z&#xA;&#x9;&#x9;&#x9;&#x9;&#x9; M-4924.26,388.6c1.61,0,4.1-0.49,4.1-4.62c0-3.52-2.02-4.31-4.04-4.31h-2.13v8.93H-4924.26z"></path>
&#x9;&#x9;&#x9;</g>
&#x9;&#x9;&#x9;<g>
&#x9;&#x9;&#x9;&#x9;<path d="M-4742.14,383.98c0,4.13,2.62,4.71,4.24,4.71c0.99,0,1.97-0.11,2.94-0.74l1.28,1.48c-1.26,1.05-2.74,1.46-4.17,1.46&#xA;&#x9;&#x9;&#x9;&#x9;&#x9;c-2.42,0-6.57-1.3-6.57-6.98c0-4.8,3.59-6.51,6.55-6.51c1.46,0,2.94,0.38,4.2,1.39l-1.3,1.57c-0.92-0.61-1.93-0.76-2.92-0.76&#xA;&#x9;&#x9;&#x9;&#x9;&#x9;C-4739.9,379.61-4742.14,380.39-4742.14,383.98z"></path>
&#x9;&#x9;&#x9;&#x9;<path d="M-4710.8,383.91c0-4.8,3.46-6.51,6.35-6.51s6.35,1.71,6.35,6.51c0,5.68-3.93,6.98-6.35,6.98&#xA;&#x9;&#x9;&#x9;&#x9;&#x9;S-4710.8,389.59-4710.8,383.91z M-4700.39,383.98c0-3.59-2.09-4.37-4.06-4.37c-1.97,0-4.06,0.79-4.06,4.37&#xA;&#x9;&#x9;&#x9;&#x9;&#x9;c0,4.13,2.47,4.71,4.06,4.71S-4700.39,388.11-4700.39,383.98z"></path>
&#x9;&#x9;&#x9;&#x9;<path d="M-4671.94,388.6h6.15v2.15h-8.41v-13.24h2.27V388.6z"></path>
&#x9;&#x9;&#x9;</g>
&#x9;&#x9;</g>
&#x9;</g>
</g>
<g>
&#x9;<rect x="-871.05" y="865" class="st0" width="776.07" height="768"></rect>
&#x9;<g>
&#x9;&#x9;<g>
&#x9;&#x9;&#x9;<g>
&#x9;&#x9;&#x9;&#x9;<path class="st1" d="M-483.72,1379.01c-71.79,0-130.19-58.4-130.19-130.19c0-71.78,58.4-130.19,130.19-130.19&#xA;&#x9;&#x9;&#x9;&#x9;&#x9;s130.19,58.4,130.19,130.19C-353.53,1320.6-411.93,1379.01-483.72,1379.01z M-483.72,1132.52c-64.13,0-116.3,52.17-116.3,116.3&#xA;&#x9;&#x9;&#x9;&#x9;&#x9;c0,64.13,52.17,116.3,116.3,116.3s116.3-52.17,116.3-116.3C-367.42,1184.69-419.59,1132.52-483.72,1132.52z"></path>
&#x9;&#x9;&#x9;</g>
&#x9;&#x9;</g>
&#x9;&#x9;<path class="st1" d="M-421.16,1290.25l-0.07-1.81c-1.81-25.99-29.26-46.34-62.49-46.34c-24.25,0-44.5-12.75-48.42-29.52&#xA;&#x9;&#x9;&#x9;c6.31-3.44,10.45-4.22,10.45-4.22c11.9-2.44,24.56-1.15,35.64,3.65c18.09,7.83,38.85,7.83,56.94,0l3.84-1.66&#xA;&#x9;&#x9;&#x9;c2.61-1.13,4.23-3.79,4.03-6.63c-1.81-25.99-29.26-46.34-62.49-46.34c-34.51,0-62.58,22.02-62.58,49.08c0,0.3,0.01,0.6,0.03,0.9&#xA;&#x9;&#x9;&#x9;l0.07,1.84c1.81,25.99,29.26,46.34,62.49,46.34c24.83,0,45.46,13.36,48.67,30.72c-5.17,1.94-10.9,3.02-10.9,3.02&#xA;&#x9;&#x9;&#x9;c-11.95,2.37-24.14,1.08-35.25-3.73c-18.09-7.84-38.85-7.84-56.94,0l-4.04,1.75c-2.62,1.13-4.23,3.79-4.03,6.63&#xA;&#x9;&#x9;&#x9;c1.81,25.99,29.26,46.34,62.49,46.34c34.51,0,62.59-22.02,62.59-49.08C-421.14,1290.87-421.15,1290.56-421.16,1290.25z&#xA;&#x9;&#x9;&#x9; M-483.72,1170.81c24.05,0,44.19,12.53,48.36,29.26c-14.48,5.97-30.95,5.84-45.34-0.39c-13.79-5.97-28.89-7.52-43.68-4.49&#xA;&#x9;&#x9;&#x9;c-2.28,0.41-4.67,1.27-6.81,2.2C-525.65,1182.12-506.5,1170.81-483.72,1170.81z M-483.72,1326.82&#xA;&#x9;&#x9;&#x9;c-24.05,0-44.19-12.53-48.36-29.26c14.53-6.06,31.08-5.96,45.55,0.3c13.62,5.9,28.56,7.49,43.2,4.59c1.93-0.32,4.57-1.2,7.08-2.16&#xA;&#x9;&#x9;&#x9;C-441.83,1315.54-460.97,1326.82-483.72,1326.82z"></path>
&#x9;</g>
</g>
<g>
&#x9;<rect x="-871.05" y="-3" class="st1" width="776.07" height="772"></rect>
&#x9;<g>
&#x9;&#x9;<g>
&#x9;&#x9;&#x9;<g>
&#x9;&#x9;&#x9;&#x9;<path class="st2" d="M-483.72,511.01c-71.79,0-130.19-58.4-130.19-130.19c0-71.78,58.4-130.19,130.19-130.19&#xA;&#x9;&#x9;&#x9;&#x9;&#x9;s130.19,58.4,130.19,130.19C-353.53,452.6-411.93,511.01-483.72,511.01z M-483.72,264.52c-64.13,0-116.3,52.17-116.3,116.3&#xA;&#x9;&#x9;&#x9;&#x9;&#x9;c0,64.13,52.17,116.3,116.3,116.3s116.3-52.17,116.3-116.3C-367.42,316.69-419.59,264.52-483.72,264.52z"></path>
&#x9;&#x9;&#x9;</g>
&#x9;&#x9;</g>
&#x9;&#x9;<path class="st2" d="M-421.16,422.25l-0.07-1.81c-1.81-25.99-29.26-46.34-62.49-46.34c-24.25,0-44.5-12.75-48.42-29.52&#xA;&#x9;&#x9;&#x9;c6.31-3.44,10.45-4.22,10.45-4.22c11.9-2.44,24.56-1.15,35.64,3.65c18.09,7.83,38.85,7.83,56.94,0l3.84-1.66&#xA;&#x9;&#x9;&#x9;c2.61-1.13,4.23-3.79,4.03-6.63c-1.81-25.99-29.26-46.34-62.49-46.34c-34.51,0-62.58,22.02-62.58,49.08c0,0.3,0.01,0.6,0.03,0.9&#xA;&#x9;&#x9;&#x9;l0.07,1.84c1.81,25.99,29.26,46.34,62.49,46.34c24.83,0,45.46,13.36,48.67,30.72c-5.17,1.94-10.9,3.02-10.9,3.02&#xA;&#x9;&#x9;&#x9;c-11.95,2.37-24.14,1.08-35.25-3.73c-18.09-7.84-38.85-7.84-56.94,0l-4.04,1.75c-2.62,1.13-4.23,3.79-4.03,6.63&#xA;&#x9;&#x9;&#x9;c1.81,25.99,29.26,46.34,62.49,46.34c34.51,0,62.59-22.02,62.59-49.08C-421.14,422.87-421.15,422.56-421.16,422.25z&#xA;&#x9;&#x9;&#x9; M-483.72,302.81c24.05,0,44.19,12.53,48.36,29.26c-14.48,5.97-30.95,5.84-45.34-0.39c-13.79-5.97-28.89-7.52-43.68-4.49&#xA;&#x9;&#x9;&#x9;c-2.28,0.41-4.67,1.27-6.81,2.2C-525.65,314.12-506.5,302.81-483.72,302.81z M-483.72,458.82c-24.05,0-44.19-12.53-48.36-29.26&#xA;&#x9;&#x9;&#x9;c14.53-6.06,31.08-5.96,45.55,0.3c13.62,5.9,28.56,7.49,43.2,4.59c1.93-0.32,4.57-1.2,7.08-2.16&#xA;&#x9;&#x9;&#x9;C-441.83,447.54-460.97,458.82-483.72,458.82z"></path>
&#x9;</g>
</g>
<g>
&#x9;<rect x="-1740.71" y="865" class="st3" width="773.74" height="773"></rect>
&#x9;<g>
&#x9;&#x9;<g>
&#x9;&#x9;&#x9;<g>
&#x9;&#x9;&#x9;&#x9;<path class="st2" d="M-1353.38,1379.01c-71.79,0-130.19-58.4-130.19-130.19c0-71.78,58.4-130.19,130.19-130.19&#xA;&#x9;&#x9;&#x9;&#x9;&#x9;c71.79,0,130.19,58.4,130.19,130.19C-1223.19,1320.6-1281.59,1379.01-1353.38,1379.01z M-1353.38,1132.52&#xA;&#x9;&#x9;&#x9;&#x9;&#x9;c-64.13,0-116.3,52.17-116.3,116.3c0,64.13,52.17,116.3,116.3,116.3s116.3-52.17,116.3-116.3&#xA;&#x9;&#x9;&#x9;&#x9;&#x9;C-1237.08,1184.69-1289.26,1132.52-1353.38,1132.52z"></path>
&#x9;&#x9;&#x9;</g>
&#x9;&#x9;</g>
&#x9;&#x9;<path class="st2" d="M-1290.83,1290.25l-0.07-1.81c-1.81-25.99-29.26-46.34-62.49-46.34c-24.25,0-44.5-12.75-48.42-29.52&#xA;&#x9;&#x9;&#x9;c6.31-3.44,10.45-4.22,10.45-4.22c11.9-2.44,24.56-1.15,35.64,3.65c18.09,7.83,38.85,7.83,56.94,0l3.84-1.66&#xA;&#x9;&#x9;&#x9;c2.61-1.13,4.23-3.79,4.03-6.63c-1.81-25.99-29.26-46.34-62.49-46.34c-34.51,0-62.58,22.02-62.58,49.08c0,0.3,0.01,0.6,0.03,0.9&#xA;&#x9;&#x9;&#x9;l0.07,1.84c1.81,25.99,29.26,46.34,62.49,46.34c24.83,0,45.46,13.36,48.67,30.72c-5.17,1.94-10.9,3.02-10.9,3.02&#xA;&#x9;&#x9;&#x9;c-11.95,2.37-24.14,1.08-35.25-3.73c-18.09-7.84-38.85-7.84-56.94,0l-4.04,1.75c-2.62,1.13-4.23,3.79-4.03,6.63&#xA;&#x9;&#x9;&#x9;c1.81,25.99,29.26,46.34,62.49,46.34c34.51,0,62.59-22.02,62.59-49.08C-1290.8,1290.87-1290.81,1290.56-1290.83,1290.25z&#xA;&#x9;&#x9;&#x9; M-1353.38,1170.81c24.05,0,44.19,12.53,48.36,29.26c-14.48,5.97-30.95,5.84-45.34-0.39c-13.79-5.97-28.89-7.52-43.68-4.49&#xA;&#x9;&#x9;&#x9;c-2.28,0.41-4.67,1.27-6.81,2.2C-1395.31,1182.12-1376.16,1170.81-1353.38,1170.81z M-1353.38,1326.82&#xA;&#x9;&#x9;&#x9;c-24.05,0-44.19-12.53-48.36-29.26c14.53-6.06,31.08-5.96,45.55,0.3c13.62,5.9,28.56,7.49,43.2,4.59c1.93-0.32,4.57-1.2,7.08-2.16&#xA;&#x9;&#x9;&#x9;C-1311.49,1315.54-1330.63,1326.82-1353.38,1326.82z"></path>
&#x9;</g>
</g>
<g>
&#x9;<rect x="-1740.71" y="-3" class="st4" width="775.74" height="772"></rect>
&#x9;<g>
&#x9;&#x9;<g>
&#x9;&#x9;&#x9;<g>
&#x9;&#x9;&#x9;&#x9;<path class="st2" d="M-1353.38,511.01c-71.79,0-130.19-58.4-130.19-130.19c0-71.78,58.4-130.19,130.19-130.19&#xA;&#x9;&#x9;&#x9;&#x9;&#x9;c71.79,0,130.19,58.4,130.19,130.19C-1223.19,452.6-1281.59,511.01-1353.38,511.01z M-1353.38,264.52&#xA;&#x9;&#x9;&#x9;&#x9;&#x9;c-64.13,0-116.3,52.17-116.3,116.3c0,64.13,52.17,116.3,116.3,116.3s116.3-52.17,116.3-116.3&#xA;&#x9;&#x9;&#x9;&#x9;&#x9;C-1237.08,316.69-1289.26,264.52-1353.38,264.52z"></path>
&#x9;&#x9;&#x9;</g>
&#x9;&#x9;</g>
&#x9;&#x9;<path class="st2" d="M-1290.83,422.25l-0.07-1.81c-1.81-25.99-29.26-46.34-62.49-46.34c-24.25,0-44.5-12.75-48.42-29.52&#xA;&#x9;&#x9;&#x9;c6.31-3.44,10.45-4.22,10.45-4.22c11.9-2.44,24.56-1.15,35.64,3.65c18.09,7.83,38.85,7.83,56.94,0l3.84-1.66&#xA;&#x9;&#x9;&#x9;c2.61-1.13,4.23-3.79,4.03-6.63c-1.81-25.99-29.26-46.34-62.49-46.34c-34.51,0-62.58,22.02-62.58,49.08c0,0.3,0.01,0.6,0.03,0.9&#xA;&#x9;&#x9;&#x9;l0.07,1.84c1.81,25.99,29.26,46.34,62.49,46.34c24.83,0,45.46,13.36,48.67,30.72c-5.17,1.94-10.9,3.02-10.9,3.02&#xA;&#x9;&#x9;&#x9;c-11.95,2.37-24.14,1.08-35.25-3.73c-18.09-7.84-38.85-7.84-56.94,0l-4.04,1.75c-2.62,1.13-4.23,3.79-4.03,6.63&#xA;&#x9;&#x9;&#x9;c1.81,25.99,29.26,46.34,62.49,46.34c34.51,0,62.59-22.02,62.59-49.08C-1290.8,422.87-1290.81,422.56-1290.83,422.25z&#xA;&#x9;&#x9;&#x9; M-1353.38,302.81c24.05,0,44.19,12.53,48.36,29.26c-14.48,5.97-30.95,5.84-45.34-0.39c-13.79-5.97-28.89-7.52-43.68-4.49&#xA;&#x9;&#x9;&#x9;c-2.28,0.41-4.67,1.27-6.81,2.2C-1395.31,314.12-1376.16,302.81-1353.38,302.81z M-1353.38,458.82&#xA;&#x9;&#x9;&#x9;c-24.05,0-44.19-12.53-48.36-29.26c14.53-6.06,31.08-5.96,45.55,0.3c13.62,5.9,28.56,7.49,43.2,4.59c1.93-0.32,4.57-1.2,7.08-2.16&#xA;&#x9;&#x9;&#x9;C-1311.49,447.54-1330.63,458.82-1353.38,458.82z"></path>
&#x9;</g>
</g>
<g>
&#x9;<g>
&#x9;&#x9;<g>
&#x9;&#x9;&#x9;<path class="st2" d="M1255.6,511.01c-71.79,0-130.19-58.4-130.19-130.19c0-71.78,58.4-130.19,130.19-130.19&#xA;&#x9;&#x9;&#x9;&#x9;c71.79,0,130.19,58.4,130.19,130.19C1385.79,452.6,1327.39,511.01,1255.6,511.01z M1255.6,264.52&#xA;&#x9;&#x9;&#x9;&#x9;c-64.13,0-116.3,52.17-116.3,116.3c0,64.13,52.17,116.3,116.3,116.3s116.3-52.17,116.3-116.3&#xA;&#x9;&#x9;&#x9;&#x9;C1371.91,316.69,1319.73,264.52,1255.6,264.52z"></path>
&#x9;&#x9;</g>
&#x9;</g>
&#x9;<path class="st2" d="M1318.16,422.25l-0.07-1.81c-1.81-25.99-29.26-46.34-62.49-46.34c-24.25,0-44.5-12.75-48.42-29.52&#xA;&#x9;&#x9;c6.31-3.44,10.45-4.22,10.45-4.22c11.9-2.44,24.56-1.15,35.64,3.65c18.09,7.83,38.85,7.83,56.94,0l3.84-1.66&#xA;&#x9;&#x9;c2.61-1.13,4.23-3.79,4.03-6.63c-1.81-25.99-29.26-46.34-62.49-46.34c-34.51,0-62.58,22.02-62.58,49.08c0,0.3,0.01,0.6,0.03,0.9&#xA;&#x9;&#x9;l0.07,1.84c1.81,25.99,29.26,46.34,62.49,46.34c24.83,0,45.46,13.36,48.67,30.72c-5.17,1.94-10.9,3.02-10.9,3.02&#xA;&#x9;&#x9;c-11.95,2.37-24.14,1.08-35.25-3.73c-18.09-7.84-38.85-7.84-56.94,0l-4.04,1.75c-2.62,1.13-4.23,3.79-4.03,6.63&#xA;&#x9;&#x9;c1.81,25.99,29.26,46.34,62.49,46.34c34.51,0,62.59-22.02,62.59-49.08C1318.19,422.87,1318.18,422.56,1318.16,422.25z&#xA;&#x9;&#x9; M1255.6,302.81c24.05,0,44.19,12.53,48.36,29.26c-14.48,5.97-30.95,5.84-45.34-0.39c-13.79-5.97-28.89-7.52-43.68-4.49&#xA;&#x9;&#x9;c-2.28,0.41-4.67,1.27-6.81,2.2C1213.68,314.12,1232.83,302.81,1255.6,302.81z M1255.6,458.82c-24.05,0-44.19-12.53-48.36-29.26&#xA;&#x9;&#x9;c14.53-6.06,31.08-5.96,45.55,0.3c13.62,5.9,28.56,7.49,43.2,4.59c1.93-0.32,4.57-1.2,7.08-2.16&#xA;&#x9;&#x9;C1297.49,447.54,1278.36,458.82,1255.6,458.82z"></path>
</g>
<g>
&#x9;<rect x="-2610.38" y="865" width="773.4" height="773"></rect>
&#x9;<g>
&#x9;&#x9;<g>
&#x9;&#x9;&#x9;<g>
&#x9;&#x9;&#x9;&#x9;<path class="st2" d="M-2223.05,1379.01c-71.79,0-130.19-58.4-130.19-130.19c0-71.78,58.4-130.19,130.19-130.19&#xA;&#x9;&#x9;&#x9;&#x9;&#x9;c71.79,0,130.19,58.4,130.19,130.19C-2092.86,1320.6-2151.26,1379.01-2223.05,1379.01z M-2223.05,1132.52&#xA;&#x9;&#x9;&#x9;&#x9;&#x9;c-64.13,0-116.3,52.17-116.3,116.3c0,64.13,52.17,116.3,116.3,116.3s116.3-52.17,116.3-116.3&#xA;&#x9;&#x9;&#x9;&#x9;&#x9;C-2106.75,1184.69-2158.92,1132.52-2223.05,1132.52z"></path>
&#x9;&#x9;&#x9;</g>
&#x9;&#x9;</g>
&#x9;&#x9;<path class="st2" d="M-2160.49,1290.25l-0.07-1.81c-1.81-25.99-29.26-46.34-62.49-46.34c-24.25,0-44.5-12.75-48.42-29.52&#xA;&#x9;&#x9;&#x9;c6.31-3.44,10.45-4.22,10.45-4.22c11.9-2.44,24.56-1.15,35.64,3.65c18.09,7.83,38.85,7.83,56.94,0l3.84-1.66&#xA;&#x9;&#x9;&#x9;c2.61-1.13,4.23-3.79,4.03-6.63c-1.81-25.99-29.26-46.34-62.49-46.34c-34.51,0-62.58,22.02-62.58,49.08c0,0.3,0.01,0.6,0.03,0.9&#xA;&#x9;&#x9;&#x9;l0.07,1.84c1.81,25.99,29.26,46.34,62.49,46.34c24.83,0,45.46,13.36,48.67,30.72c-5.17,1.94-10.9,3.02-10.9,3.02&#xA;&#x9;&#x9;&#x9;c-11.95,2.37-24.14,1.08-35.25-3.73c-18.09-7.84-38.85-7.84-56.94,0l-4.04,1.75c-2.61,1.13-4.23,3.79-4.03,6.63&#xA;&#x9;&#x9;&#x9;c1.81,25.99,29.26,46.34,62.49,46.34c34.51,0,62.59-22.02,62.59-49.08C-2160.46,1290.87-2160.47,1290.56-2160.49,1290.25z&#xA;&#x9;&#x9;&#x9; M-2223.05,1170.81c24.05,0,44.19,12.53,48.36,29.26c-14.48,5.97-30.95,5.84-45.34-0.39c-13.79-5.97-28.89-7.52-43.68-4.49&#xA;&#x9;&#x9;&#x9;c-2.28,0.41-4.67,1.27-6.81,2.2C-2264.97,1182.12-2245.82,1170.81-2223.05,1170.81z M-2223.05,1326.82&#xA;&#x9;&#x9;&#x9;c-24.05,0-44.19-12.53-48.36-29.26c14.53-6.06,31.08-5.96,45.55,0.3c13.62,5.9,28.56,7.49,43.2,4.59c1.93-0.32,4.56-1.2,7.08-2.16&#xA;&#x9;&#x9;&#x9;C-2181.16,1315.54-2200.29,1326.82-2223.05,1326.82z"></path>
&#x9;</g>
</g>
<g>
&#x9;<g>
&#x9;&#x9;<g>
&#x9;&#x9;&#x9;<path d="M385.94,511.01c-71.79,0-130.19-58.4-130.19-130.19c0-71.78,58.4-130.19,130.19-130.19s130.19,58.4,130.19,130.19&#xA;&#x9;&#x9;&#x9;&#x9;C516.13,452.6,457.73,511.01,385.94,511.01z M385.94,264.52c-64.13,0-116.3,52.17-116.3,116.3c0,64.13,52.17,116.3,116.3,116.3&#xA;&#x9;&#x9;&#x9;&#x9;s116.3-52.17,116.3-116.3C502.24,316.69,450.07,264.52,385.94,264.52z"></path>
&#x9;&#x9;</g>
&#x9;</g>
&#x9;<path d="M448.5,422.25l-0.07-1.81c-1.81-25.99-29.26-46.34-62.49-46.34c-24.25,0-44.5-12.75-48.42-29.52&#xA;&#x9;&#x9;c6.31-3.44,10.45-4.22,10.45-4.22c11.9-2.44,24.56-1.15,35.64,3.65c18.09,7.83,38.85,7.83,56.94,0l3.84-1.66&#xA;&#x9;&#x9;c2.61-1.13,4.23-3.79,4.03-6.63c-1.81-25.99-29.26-46.34-62.49-46.34c-34.51,0-62.58,22.02-62.58,49.08c0,0.3,0.01,0.6,0.03,0.9&#xA;&#x9;&#x9;l0.07,1.84c1.81,25.99,29.26,46.34,62.49,46.34c24.83,0,45.46,13.36,48.67,30.72c-5.17,1.94-10.9,3.02-10.9,3.02&#xA;&#x9;&#x9;c-11.95,2.37-24.14,1.08-35.25-3.73c-18.09-7.84-38.85-7.84-56.94,0l-4.04,1.75c-2.62,1.13-4.23,3.79-4.03,6.63&#xA;&#x9;&#x9;c1.81,25.99,29.26,46.34,62.49,46.34c34.51,0,62.59-22.02,62.59-49.08C448.53,422.87,448.52,422.56,448.5,422.25z M385.94,302.81&#xA;&#x9;&#x9;c24.05,0,44.19,12.53,48.36,29.26c-14.48,5.97-30.95,5.84-45.34-0.39c-13.79-5.97-28.89-7.52-43.68-4.49&#xA;&#x9;&#x9;c-2.28,0.41-4.67,1.27-6.81,2.2C344.01,314.12,363.17,302.81,385.94,302.81z M385.94,458.82c-24.05,0-44.19-12.53-48.36-29.26&#xA;&#x9;&#x9;c14.53-6.06,31.08-5.96,45.55,0.3c13.62,5.9,28.56,7.49,43.2,4.59c1.93-0.32,4.57-1.2,7.08-2.16&#xA;&#x9;&#x9;C427.83,447.54,408.7,458.82,385.94,458.82z"></path>
</g>
<g>
&#x9;<rect x="-2610.38" y="-3" class="st2" width="773.4" height="775"></rect>
&#x9;<g>
&#x9;&#x9;<g>
&#x9;&#x9;&#x9;<g>
&#x9;&#x9;&#x9;&#x9;<path d="M-2223.05,511.01c-71.79,0-130.19-58.4-130.19-130.19c0-71.78,58.4-130.19,130.19-130.19&#xA;&#x9;&#x9;&#x9;&#x9;&#x9;c71.79,0,130.19,58.4,130.19,130.19C-2092.86,452.6-2151.26,511.01-2223.05,511.01z M-2223.05,264.52&#xA;&#x9;&#x9;&#x9;&#x9;&#x9;c-64.13,0-116.3,52.17-116.3,116.3c0,64.13,52.17,116.3,116.3,116.3s116.3-52.17,116.3-116.3&#xA;&#x9;&#x9;&#x9;&#x9;&#x9;C-2106.75,316.69-2158.92,264.52-2223.05,264.52z"></path>
&#x9;&#x9;&#x9;</g>
&#x9;&#x9;</g>
&#x9;&#x9;<path d="M-2160.49,422.25l-0.07-1.81c-1.81-25.99-29.26-46.34-62.49-46.34c-24.25,0-44.5-12.75-48.42-29.52&#xA;&#x9;&#x9;&#x9;c6.31-3.44,10.45-4.22,10.45-4.22c11.9-2.44,24.56-1.15,35.64,3.65c18.09,7.83,38.85,7.83,56.94,0l3.84-1.66&#xA;&#x9;&#x9;&#x9;c2.61-1.13,4.23-3.79,4.03-6.63c-1.81-25.99-29.26-46.34-62.49-46.34c-34.51,0-62.58,22.02-62.58,49.08c0,0.3,0.01,0.6,0.03,0.9&#xA;&#x9;&#x9;&#x9;l0.07,1.84c1.81,25.99,29.26,46.34,62.49,46.34c24.83,0,45.46,13.36,48.67,30.72c-5.17,1.94-10.9,3.02-10.9,3.02&#xA;&#x9;&#x9;&#x9;c-11.95,2.37-24.14,1.08-35.25-3.73c-18.09-7.84-38.85-7.84-56.94,0l-4.04,1.75c-2.61,1.13-4.23,3.79-4.03,6.63&#xA;&#x9;&#x9;&#x9;c1.81,25.99,29.26,46.34,62.49,46.34c34.51,0,62.59-22.02,62.59-49.08C-2160.46,422.87-2160.47,422.56-2160.49,422.25z&#xA;&#x9;&#x9;&#x9; M-2223.05,302.81c24.05,0,44.19,12.53,48.36,29.26c-14.48,5.97-30.95,5.84-45.34-0.39c-13.79-5.97-28.89-7.52-43.68-4.49&#xA;&#x9;&#x9;&#x9;c-2.28,0.41-4.67,1.27-6.81,2.2C-2264.97,314.12-2245.82,302.81-2223.05,302.81z M-2223.05,458.82&#xA;&#x9;&#x9;&#x9;c-24.05,0-44.19-12.53-48.36-29.26c14.53-6.06,31.08-5.96,45.55,0.3c13.62,5.9,28.56,7.49,43.2,4.59c1.93-0.32,4.56-1.2,7.08-2.16&#xA;&#x9;&#x9;&#x9;C-2181.16,447.54-2200.29,458.82-2223.05,458.82z"></path>
&#x9;</g>
</g>
</svg>